<svg width="310" height="310" viewBox="0 0 310 310" fill="none" xmlns="http://www.w3.org/2000/svg">
<path d="M94.6843 188.088H98.4663V204.9H94.6843V197.77H88.3293V204.9H84.537V188.088H88.3293V194.515H94.6843V188.088Z" fill="#A3195B"/>
<path d="M102.352 204.9V188.088H113.708V191.27H106.134V194.567H112.85V197.677H106.134V201.728H114.266V204.9H102.352Z" fill="#A3195B"/>
<path fill-rule="evenodd" clip-rule="evenodd" d="M128.33 204.9C128.144 204.314 127.944 203.715 127.73 203.102C127.517 202.489 127.303 201.876 127.09 201.263H120.518C120.304 201.876 120.09 202.492 119.877 203.112C119.663 203.725 119.467 204.321 119.288 204.9H115.351C115.985 203.088 116.588 201.414 117.159 199.878C117.724 198.342 118.279 196.895 118.823 195.538C119.367 194.181 119.901 192.889 120.425 191.663C120.955 190.444 121.503 189.252 122.068 188.088H125.664C126.215 189.252 126.759 190.444 127.296 191.663C127.827 192.889 128.368 194.181 128.919 195.538C129.463 196.895 130.017 198.342 130.582 199.878C131.154 201.414 131.757 203.088 132.391 204.9H128.33ZM123.783 191.901C123.693 192.142 123.569 192.472 123.411 192.893C123.246 193.313 123.06 193.798 122.853 194.35C122.646 194.901 122.415 195.507 122.161 196.168C121.899 196.83 121.637 197.525 121.375 198.256H126.18C125.925 197.525 125.677 196.83 125.436 196.168C125.195 195.5 124.964 194.89 124.744 194.339C124.53 193.788 124.341 193.302 124.176 192.882C124.01 192.462 123.879 192.135 123.783 191.901Z" fill="#A3195B"/>
<path fill-rule="evenodd" clip-rule="evenodd" d="M139.469 187.891C141.997 187.891 143.93 188.342 145.266 189.245C146.609 190.14 147.281 191.535 147.281 193.43C147.281 194.608 147.012 195.565 146.475 196.302C145.931 197.039 145.149 197.618 144.129 198.038C144.467 198.458 144.822 198.941 145.194 199.485C145.566 200.022 145.934 200.587 146.299 201.18C146.664 201.772 147.016 202.385 147.353 203.019C147.698 203.66 148.015 204.286 148.304 204.9H144.067C143.764 204.355 143.454 203.797 143.137 203.226C142.82 202.661 142.493 202.113 142.156 201.583C141.825 201.045 141.498 200.539 141.174 200.064C140.85 199.588 140.526 199.154 140.203 198.762H138.332V204.9H134.55V188.335C135.37 188.17 136.221 188.056 137.103 187.994C137.984 187.925 138.773 187.891 139.469 187.891ZM139.686 191.125C139.41 191.125 139.166 191.132 138.952 191.146C138.732 191.16 138.525 191.177 138.332 191.198V195.755H139.397C140.823 195.755 141.842 195.575 142.455 195.217C143.068 194.866 143.375 194.26 143.375 193.399C143.375 192.579 143.065 191.993 142.445 191.642C141.818 191.297 140.898 191.125 139.686 191.125Z" fill="#A3195B"/>
<path d="M162.957 188.088V191.312H157.883V204.9H154.101V191.312H149.027V188.088H162.957Z" fill="#A3195B"/>
<path d="M176.617 201.655V204.9H165.385V188.088H169.167V201.655H176.617Z" fill="#A3195B"/>
<path fill-rule="evenodd" clip-rule="evenodd" d="M194.577 196.489C194.577 197.928 194.36 199.192 193.926 200.281C193.499 201.376 192.913 202.289 192.169 203.019C191.425 203.756 190.54 204.311 189.513 204.683C188.487 205.055 187.385 205.241 186.207 205.241C185.056 205.241 183.971 205.055 182.952 204.683C181.932 204.311 181.043 203.756 180.286 203.019C179.521 202.289 178.922 201.376 178.488 200.281C178.054 199.192 177.837 197.928 177.837 196.489C177.83 195.049 178.054 193.781 178.508 192.686C178.963 191.597 179.576 190.681 180.348 189.937C181.112 189.193 182.001 188.635 183.014 188.263C184.026 187.891 185.091 187.705 186.207 187.705C187.35 187.705 188.432 187.891 189.451 188.263C190.471 188.635 191.363 189.193 192.128 189.937C192.885 190.681 193.481 191.597 193.915 192.686C194.356 193.781 194.577 195.049 194.577 196.489ZM181.743 196.489C181.743 197.308 181.843 198.052 182.042 198.721C182.242 199.382 182.531 199.95 182.91 200.426C183.296 200.901 183.761 201.269 184.305 201.531C184.856 201.793 185.49 201.92 186.207 201.914C186.902 201.92 187.529 201.793 188.087 201.531C188.645 201.269 189.114 200.901 189.493 200.426C189.872 199.95 190.161 199.382 190.361 198.721C190.567 198.052 190.671 197.308 190.671 196.489C190.671 195.662 190.567 194.911 190.361 194.236C190.161 193.568 189.872 192.996 189.493 192.521C189.114 192.038 188.645 191.67 188.087 191.415C187.529 191.153 186.902 191.022 186.207 191.022C185.49 191.022 184.856 191.157 184.305 191.425C183.761 191.694 183.296 192.066 182.91 192.541C182.531 193.017 182.242 193.592 182.042 194.267C181.843 194.935 181.743 195.676 181.743 196.489Z" fill="#A3195B"/>
<path d="M202.151 204.9C201.476 203.488 200.815 202.024 200.167 200.508C199.513 198.986 198.893 197.481 198.307 195.993C197.721 194.511 197.184 193.089 196.695 191.725C196.206 190.368 195.782 189.155 195.424 188.088H199.599C199.909 189.059 200.257 190.106 200.642 191.229C201.028 192.352 201.421 193.471 201.82 194.587C202.22 195.703 202.602 196.771 202.967 197.791C203.339 198.81 203.691 199.692 204.021 200.436C204.338 199.699 204.683 198.82 205.055 197.801C205.434 196.781 205.823 195.714 206.222 194.598C206.622 193.482 207.015 192.362 207.4 191.239C207.786 190.116 208.137 189.066 208.454 188.088H212.484C212.105 189.162 211.671 190.378 211.182 191.735C210.693 193.092 210.156 194.515 209.57 196.003C208.985 197.491 208.372 198.993 207.731 200.508C207.083 202.031 206.426 203.495 205.757 204.9H202.151Z" fill="#A3195B"/>
<path d="M214.634 204.9V188.088H225.99V191.27H218.426V194.567H225.143V197.677H218.426V201.728H226.548V204.9H214.634Z" fill="#A3195B"/>
<path d="M140.482 118.389C139.19 118.099 138.58 116.88 139.128 115.671L147.147 98.0938C147.694 96.8848 150.381 97.2362 151.187 97.8252C151.993 98.4245 152.913 99.9538 153.233 101.246L157.935 120.145C158.255 121.427 157.459 122.233 156.168 121.943L140.482 118.389Z" fill="#F7374E"/>
<path d="M138.942 136.731C139.304 138.012 139.262 140.079 138.849 141.339L133.755 157.036C133.341 158.286 132.246 158.555 131.306 157.614L117.128 143.437C116.198 142.507 116.198 140.978 117.128 140.037L122.388 134.788C123.318 133.848 124.083 133.083 124.083 133.083C124.083 133.083 124.858 132.318 125.788 131.378L133.197 123.969C134.137 123.039 135.191 123.318 135.542 124.589L138.942 136.731Z" fill="#F7374E"/>
<path d="M117.108 135.294C114.917 137.485 106.361 124.754 107.735 118.327C109.11 111.899 111.858 107.58 113.853 108.727C115.837 109.874 118.286 115.423 119.288 121.055C120.29 126.697 119.309 133.103 117.108 135.294Z" fill="#E80356"/>
<path d="M192.52 117.16C193.378 114.38 195.765 113.791 197.832 115.847L199.516 117.542C201.572 119.598 202.823 123.628 202.296 126.48L198.855 135.16C197.377 137.671 194.267 138.271 191.952 136.504L191.776 136.38C189.462 134.613 188.263 130.893 189.131 128.113L192.52 117.16Z" fill="#E80356"/>
<path d="M154.463 154.917C155.382 155.868 155.951 157.707 155.723 159.009L152.675 176.193C152.437 177.495 151.487 177.795 150.546 176.865L137.382 163.69C136.441 162.75 136.018 160.962 136.421 159.701L141.35 144.542C141.763 143.282 142.848 143.034 143.778 143.974L154.463 154.917Z" fill="#A3195B"/>
<path d="M191.89 140.698C192.944 141.494 193.037 142.92 192.107 143.85L180.844 155.113C179.914 156.043 178.074 156.684 176.752 156.539L164.527 155.144C163.215 154.989 162.988 154.183 164.011 153.357L183.768 137.443C184.791 136.617 186.496 136.586 187.55 137.392L191.89 140.698Z" fill="#F7374E"/>
<path d="M156.86 101.856C156.54 100.564 157.211 98.9725 158.348 98.3008L172.174 92.9998C173.476 92.7518 175.305 93.3202 176.235 94.2605L184.522 102.548C185.463 103.488 185.349 104.883 184.274 105.658L163.783 120.487C162.719 121.262 161.582 120.848 161.262 119.557L156.86 101.856Z" fill="#D60B52"/>
<path d="M181.412 94.6738C180.472 93.7334 180.74 93.3098 181.991 93.7231C181.991 93.7231 190.65 96.5544 194.959 100.863C199.268 105.172 202.099 113.821 202.099 113.821C202.513 115.082 202.089 115.34 201.149 114.41L181.412 94.6738Z" fill="#A3195B"/>
<path d="M186.134 126.387C185.742 127.658 185.029 127.679 184.553 126.449L180.317 115.558C179.841 114.318 180.317 112.675 181.391 111.9L186.692 108.066C187.757 107.291 189.255 107.281 190.02 108.035C190.774 108.8 191.074 110.453 190.681 111.714L186.134 126.387Z" fill="#A3195B"/>
<path d="M173.714 159.578C175.026 159.733 175.336 160.622 174.406 161.552L157.005 178.953C156.064 179.894 155.486 179.594 155.723 178.292L158.906 160.302C159.144 159 160.404 158.059 161.717 158.214L173.714 159.578Z" fill="#D60B52"/>
<path d="M113.357 104.553C112.664 104.16 112.509 103.334 113.016 102.714C113.016 102.714 113.749 101.804 114.69 100.864C122.45 93.1038 141.928 93.8375 141.928 93.8375C142.724 93.8685 142.807 94.2198 142.114 94.6125L120.249 107.095C119.557 107.488 118.43 107.477 117.738 107.085L113.357 104.553Z" fill="#A3195B"/>
<path d="M121.272 112.985C121.045 111.683 121.789 110.081 122.936 109.43L141.577 98.7865C142.734 98.1355 143.22 98.5798 142.672 99.7888L135.336 115.878C134.788 117.087 133.569 118.833 132.639 119.774L125.705 126.697C124.775 127.637 123.824 127.327 123.587 126.025L121.272 112.985Z" fill="#D60B52"/>
<path d="M174.675 116.766C175.749 115.991 177.02 116.363 177.496 117.593L182.714 131.016C183.2 132.246 182.745 133.94 181.722 134.767L161.861 150.773C160.828 151.6 160.084 151.197 160.208 149.885L162.192 128.03C162.316 126.717 163.287 125.002 164.362 124.227L174.675 116.766Z" fill="#A3195B"/>
<path d="M138.777 123.628C138.415 122.357 139.18 121.551 140.471 121.84L156.653 125.508C157.945 125.798 158.896 127.11 158.782 128.433L156.819 149.895C156.705 151.218 155.847 151.517 154.928 150.577L144.543 139.944C143.613 138.993 142.569 137.175 142.207 135.904L138.777 123.628Z" fill="#E80356"/>
</svg>
