<?xml version="1.0"?>
<svg
   xmlns="http://www.w3.org/2000/svg"
   xmlns:xlink="http://www.w3.org/1999/xlink"
   viewBox="0 0 448.01382 644.07166"
   height="644.07166"
   width="448.01382"><defs
     id="defs837"><clipPath
       id="clipPath6443"
       clipPathUnits="userSpaceOnUse"><rect
         y="933.38092"
         x="79.195961"
         height="111.72287"
         width="864.08447"
         id="rect6445"
         style="fill:#d45500;stroke:none" /></clipPath><clipPath
       id="clipPath6638"
       clipPathUnits="userSpaceOnUse"><rect
         y="759"
         x="263"
         height="79.5"
         width="111"
         id="rect6640"
         style="fill:#ed0000;stroke:none" /></clipPath><clipPath
       id="clipPath6644"
       clipPathUnits="userSpaceOnUse"><rect
         y="772"
         x="376.5"
         height="60"
         width="195"
         id="rect6646"
         style="fill:#ed0000;stroke:none" /></clipPath><clipPath
       id="clipPath6650"
       clipPathUnits="userSpaceOnUse"><rect
         y="777"
         x="575"
         height="49.5"
         width="157.5"
         id="rect6652"
         style="fill:#ed0000;stroke:none" /></clipPath></defs>
<g
     transform="translate(-278.17367,-181.24609)"><rect
       transform="rotate(45)"
       y="-70.968292"
       x="538.27869"
       height="103.3736"
       width="103.3736"
       id="rect6022"
       style="fill:#ffffff;stroke:none" /><rect
       style="fill:#fecf05;stroke:none"
       id="rect6022-3"
       width="103.3736"
       height="103.3736"
       x="641.65228"
       y="-70.968292"
       transform="rotate(45)" /><rect
       transform="rotate(45)"
       y="-70.968292"
       x="745.02588"
       height="103.3736"
       width="103.3736"
       id="rect6022-3-9"
       style="fill:#008e06;stroke:none" /><path
       d="m 503.89844,549.72656 -73.09571,73.09571 73.09571,73.09765 73.0957,73.0957 V 622.82227 Z"
       style="fill:#01aef0;stroke:none"
       id="rect6022-3-9-2" /><path
       d="m 430.80273,476.63086 v 146.19141 l 73.09571,-73.09571 z"
       style="display:inline;fill:#ffffff;stroke:none"
       id="path6095" /><path
       d="m 357.70703,403.53516 -73.09765,73.0957 73.09765,73.0957 73.0957,73.09571 V 476.63086 Z"
       style="fill:#fecf05;stroke:none"
       id="rect6022-3-9-8-2" /><path
       d="m 430.80273,184.24609 -73.0957,73.09571 -73.09765,73.0957 73.09765,73.09766 73.0957,-73.09766 z"
       style="fill:#01aef0;stroke:none"
       id="rect6022-9" /><path
       d="M 430.80273,184.24609 V 330.4375 l 73.09571,73.0957 73.0957,-73.0957 -73.0957,-73.0957 z"
       style="fill:#ef3f4c;stroke:none"
       id="path6143" /><path
       d="m 284.60938,330.4375 v 146.19336 l 73.09765,-73.0957 z"
       style="fill:#008e06;stroke:none"
       id="path6137" /><path
       d="m 576.99414,330.4375 v 146.19336 l 73.0957,-73.09766 z m 0,146.19336 73.09766,73.0957 73.0957,-73.0957 -73.0957,-73.0957 z"
       style="fill:#fecf05;stroke:none"
       id="rect6022-3-7" /><path
       d="m 576.99414,330.4375 -73.0957,73.0957 73.0957,73.09766 z"
       style="fill:#ef3303;stroke:none"
       id="rect6022-3-7-8" /><path
       d="m 650.0918,549.72656 -73.09571,73.0957 -0.002,-0.002 v 146.19335 l 73.09766,-73.0957 73.0957,-73.0957 z"
       style="fill:#002c49;stroke:none"
       id="path6215" /><path
       d="m 723.1875,476.63086 -73.0957,73.0957 73.0957,73.09571 z"
       style="fill:#ef3f4c;stroke:none"
       id="rect6022-3-9-7" /><path
       id="rect6022-3-9-7-5"
       style="fill:#ef3f4c;stroke:none"
       d="m 723.18688,476.63116 -73.0957,73.0957 73.0957,73.09571 z" /><path
       id="rect6022-3-7-8-7"
       style="fill:#ef3303;stroke:none"
       d="m 576.99454,330.43882 -73.0957,73.0957 73.0957,73.09766 z" /><path
       id="path6143-0"
       style="fill:#ef3f4c;stroke:none"
       d="M 430.80273,184.24609 V 330.4375 l 73.09571,73.0957 73.0957,-73.0957 -73.0957,-73.0957 z" /><path
       d="m 576.99454,330.43882 -73.0957,73.0957 73.0957,73.09766 z"
       style="fill:#ef3303;stroke:none"
       id="rect6022-3-7-8-7-8" /><path
       d="m 430.80313,184.24741 v 146.19141 l 73.09571,73.0957 73.0957,-73.0957 -73.0957,-73.0957 z"
       style="fill:#ef3f4c;stroke:none"
       id="path6143-0-6" /><path
       id="rect6022-9-1"
       style="fill:#01aef0;stroke:none"
       d="m 430.80313,184.24741 -73.0957,73.09571 -73.09765,73.0957 73.09765,73.09766 73.0957,-73.09766 z" /><path
       id="rect6022-9-8"
       style="fill:#01aef0;stroke:none"
       d="m 430.80313,184.24741 -73.0957,73.09571 -73.09765,73.0957 73.09765,73.09766 73.0957,-73.09766 z" /></g>
<path
     transform="translate(-278.17367,-181.24609)"
     clip-path="url(#clipPath6650)"
     style="display:inline;fill:#a8a9ad;stroke-width:0.440115"
     d="m 387.79806,821.73661 c -3.94556,-1.08587 -6.35718,-3.34766 -7.59078,-7.11919 -0.62586,-1.91352 -0.71111,-3.97871 -0.58964,-14.28719 0.13387,-11.36135 0.19631,-12.15099 1.09194,-13.81079 2.50835,-4.64849 7.77548,-6.8564 14.01401,-5.87453 6.48537,1.02074 9.40879,4.24841 10.20405,11.26595 l 0.26183,2.3106 h -4.02263 -4.0226 v -1.56225 c 0,-3.34584 -1.79596,-5.03949 -5.34391,-5.03949 -2.37076,0 -4.14893,1.73515 -4.55531,4.44512 -0.16062,1.07114 -0.22711,5.90611 -0.14773,10.74438 0.1202,7.32711 0.27172,9.02969 0.90688,10.19057 1.41847,2.59257 5.72702,3.03443 7.82395,0.80235 0.78638,-0.83707 1.08477,-1.784 1.2807,-4.06435 l 0.25547,-2.97301 h 3.74098 3.741 l -0.0279,3.30089 c -0.0417,4.91881 -1.96264,8.74107 -5.25342,10.45311 -3.45842,1.79924 -7.96095,2.26524 -11.76682,1.21783 z m 33.35816,-0.0232 c -3.10661,-0.85238 -5.50883,-2.70384 -6.8234,-5.25899 l -1.12433,-2.1854 v -12.99459 c 0,-12.47533 0.038,-13.06492 0.94994,-14.75504 1.83098,-3.39318 4.54767,-5.21025 8.79433,-5.88213 4.58693,-0.72567 9.46835,0.51594 12.00633,3.05392 3.17568,3.17568 3.67297,5.93745 3.48197,19.33765 -0.13802,9.68345 -0.21133,10.47658 -1.15839,12.53275 -1.68626,3.66104 -3.45433,5.07517 -7.78988,6.23047 -2.72526,0.7262 -5.4986,0.70004 -8.33657,-0.0787 z m 7.09924,-7.2254 c 0.943,-0.57498 1.55581,-1.40462 1.86804,-2.52902 0.6512,-2.34503 0.56671,-19.73096 -0.10542,-21.68716 -0.60625,-1.76454 -2.03902,-2.63643 -4.34766,-2.64569 -4.68473,-0.0187 -5.20811,1.37241 -5.17518,13.75607 0.0285,10.70977 0.29069,12.03236 2.61585,13.19391 1.99301,0.99561 3.40674,0.97141 5.14437,-0.0881 z m 26.54402,7.27251 c -4.11105,-1.14093 -6.17067,-2.90061 -7.71161,-6.58862 -1.00258,-2.39949 -0.97484,-24.55737 0.0347,-27.615 1.68625,-5.10787 7.70643,-7.99049 14.442,-6.91514 3.35566,0.53573 5.53961,1.68073 7.43951,3.90036 2.47065,2.88641 2.74002,4.55184 2.74002,16.94122 0,11.79916 -0.17396,13.01046 -2.32701,16.20211 -2.5578,3.79162 -9.08357,5.61088 -14.61749,4.07507 z m 6.90948,-7.27531 c 2.14781,-1.3096 2.4268,-3.07362 2.25872,-14.28204 -0.12603,-8.4038 -0.25053,-9.87199 -0.91778,-10.82303 -1.66222,-2.3691 -6.63388,-2.41153 -8.17028,-0.0697 -0.62541,0.95327 -0.762,2.64387 -0.88013,10.89414 -0.16088,11.23705 0.11348,12.97623 2.25274,14.28063 1.79026,1.09157 3.66647,1.09157 5.45673,0 z m 19.05045,6.8205 c -0.004,-0.13044 -0.0102,-9.19906 -0.013,-20.15246 l -0.006,-19.91528 h 7.82517 c 8.72992,0 10.49574,0.33539 13.38724,2.54267 2.73978,2.09147 4.04853,5.01558 4.08199,9.12044 0.0353,4.33668 -0.95882,6.92913 -3.52277,9.18601 -2.57366,2.26542 -5.36511,3.13725 -10.04508,3.13725 h -3.75838 l -0.11995,8.03212 -0.11994,8.03213 -3.85103,0.12717 c -2.11808,0.0699 -3.85414,0.0204 -3.85797,-0.11005 z m 15.88501,-23.96963 c 1.15345,-1.15346 1.28649,-1.57728 1.28649,-4.09875 0,-2.56004 -0.12031,-2.92753 -1.34143,-4.09743 -1.19006,-1.14016 -1.71158,-1.30388 -4.62123,-1.45081 l -3.27978,-0.16563 v 5.54958 5.54955 h 3.33471 c 3.09893,0 3.4257,-0.091 4.62124,-1.28651 z m 16.89205,23.62242 c -0.11606,-0.30257 -0.15934,-9.36347 -0.0961,-20.13533 l 0.11478,-19.5852 10.69147,-0.11787 10.69148,-0.1179 -0.12867,3.41876 -0.12869,3.41878 -6.60173,0.22006 c -3.63097,0.12102 -6.55226,0.36858 -6.49172,0.55013 0.0605,0.18156 0.11002,2.2051 0.11002,4.49679 v 4.16669 l 4.95131,0.12444 4.95129,0.12444 0.13605,2.39712 c 0.25531,4.49912 0.34286,4.4247 -5.20576,4.4247 -2.65809,0 -4.83896,0.14853 -4.84641,0.33008 -0.008,0.18153 -0.0353,2.40965 -0.0619,4.95131 l -0.0485,4.62123 6.77367,0.22006 6.7737,0.22005 0.12854,3.41092 0.12854,3.41089 h -10.81515 c -8.24619,0 -10.86528,-0.13069 -11.02617,-0.55015 z m 30.36805,0 c -0.11606,-0.30257 -0.15935,-9.36347 -0.0961,-20.13533 l 0.11478,-19.5852 6.60176,-0.13433 c 7.56663,-0.154 10.79685,0.35448 13.61805,2.14363 2.96315,1.87916 4.32899,4.5774 4.56175,9.01159 0.29697,5.65817 -1.10589,8.76343 -4.97074,11.00284 -0.728,0.42184 -0.50745,1.13184 2.79284,8.99135 1.97079,4.69336 3.58327,8.69586 3.58327,8.89449 0,0.19861 -1.84505,0.36111 -4.10012,0.36111 h -4.10011 l -1.05329,-2.53067 c -0.57932,-1.39186 -2.05647,-5.00633 -3.28255,-8.03213 l -2.22929,-5.50146 h -1.74973 -1.74974 l -0.11996,8.03212 -0.11996,8.03214 h -3.74488 c -2.58996,0 -3.80994,-0.16966 -3.95587,-0.55015 z m 15.74273,-24.06484 c 1.213,-1.35759 1.30237,-1.67998 1.12926,-4.07327 -0.15133,-2.09204 -0.42017,-2.83127 -1.37834,-3.78982 -1.07432,-1.07475 -1.50046,-1.19083 -4.37167,-1.19083 h -3.18132 l -0.12867,4.40116 c -0.19315,6.60669 -0.24432,6.51451 3.50167,6.30287 2.87487,-0.16245 3.2121,-0.2881 4.42907,-1.65011 z m 25.79041,24.21171 c -3.72585,-1.21225 -6.246,-3.71435 -6.99619,-6.94608 -0.21361,-0.92016 -0.39309,-8.25828 -0.39887,-16.30691 l -0.0105,-14.63388 h 3.08081 3.08083 v 13.57796 c 0,14.43932 0.14424,15.64754 2.12274,17.78035 0.97593,1.05206 1.45641,1.21032 3.67416,1.21032 2.16252,0 2.75729,-0.18449 3.90206,-1.21032 0.80752,-0.7236 1.51405,-1.91826 1.75693,-2.97079 0.22343,-0.96825 0.41097,-7.76058 0.41675,-15.09408 l 0.0105,-13.33364 2.97079,0.13013 2.97078,0.13014 0.12095,14.52385 c 0.13192,15.84263 -0.0143,17.13404 -2.24762,19.84338 -2.07255,2.51438 -4.29593,3.38006 -9.09631,3.54167 -2.2996,0.0774 -4.71061,-0.0314 -5.35781,-0.2421 z m 86.58475,-0.25343 c -5.76602,-2.05405 -6.82963,-4.97575 -6.84036,-18.78487 -0.008,-9.91595 0.35298,-12.46051 2.14467,-15.13925 3.16087,-4.72575 12.99844,-5.6114 17.69318,-1.59284 1.89005,1.61779 2.30635,2.39366 3.30359,6.15719 0.76821,2.89908 0.85449,18.00385 0.12054,21.09779 -1.16611,4.91567 -3.23564,7.44457 -6.93278,8.47152 -2.27108,0.63084 -7.45083,0.51645 -9.48884,-0.20954 z m 8.51688,-6.12255 c 0.54654,-0.58177 1.1705,-1.8196 1.38657,-2.75074 0.55055,-2.37255 0.50704,-18.06416 -0.0558,-20.09073 -0.58628,-2.11127 -2.53547,-3.38369 -5.18591,-3.38636 -1.59161,-0.002 -2.49639,-0.008 -3.4109,1.49476 -2.16045,3.5506 -1.4964,8.08118 -1.4964,11.91206 0,6.80421 0.17049,10.74901 0.49164,11.37702 0.92402,1.80685 2.23,2.4811 4.82307,2.49195 2.02953,0.009 2.62583,-0.17316 3.44767,-1.04796 10e-6,-10e-6 5e-5,1e-5 6e-5,0 z m -390.4481,-10.27525 -0.11532,-16.6144 -4.33744,-0.22007 -4.33746,-0.22005 -0.0636,-2.97104 -0.0637,-2.97102 12.39573,2.3e-4 12.39575,2.6e-4 0.14759,2.89914 c 0.0811,1.59452 0.0652,2.98088 -0.0358,3.08081 -0.1009,0.0999 -2.10971,0.18167 -4.4641,0.18167 -3.45242,0 -4.33117,0.13144 -4.54137,0.67922 -0.14335,0.37356 -0.21405,7.8996 -0.15712,16.7245 l 0.10352,16.04531 -3.40561,-7e-5 -3.40561,-9e-5 z m 23.87103,-3.19086 V 781.458 h 3.51099 3.51102 l 0.11995,8.03213 0.11997,8.03211 h 5.72151 5.72151 l 0.11996,-8.03211 0.11995,-8.03213 h 3.511 3.511 v 19.80524 19.80524 h -3.52094 -3.52092 v -8.27418 c 0,-5.84867 -0.15481,-8.42902 -0.52814,-8.80232 -0.72639,-0.72641 -10.10047,-0.72641 -10.82686,0 -0.37333,0.3733 -0.52813,2.95365 -0.52813,8.80232 v 8.27418 h -3.52094 -3.52093 z m 36.30961,0 V 781.458 h 10.01264 10.01265 v 3.0808 3.08082 h -6.61617 -6.61613 l 0.12443,4.95133 0.12445,4.95129 4.97107,0.12463 4.97109,0.12464 -0.12981,2.90837 -0.1298,2.90837 -4.19308,-0.0861 c -2.30618,-0.0474 -4.53428,0.0449 -4.95131,0.20495 -0.66112,0.2537 -0.75823,0.98949 -0.75823,5.74533 v 5.45435 h 7.04186 7.04187 v 3.08082 3.08081 h -10.45277 -10.45276 z m 263.28534,0.99026 v -18.94508 h 3.65757 3.56191 l 10.97134,23.91587 V 794.2013 783.30846 h 2.86374 2.97078 v 18.94505 18.90439 h -3.13305 -3.21844 l -11.91926,-24.95205 v 13.00553 11.94652 h -2.87946 -2.87513 z m 35.33369,-18.94508 h 6.16162 l 0.14216,37.84944 h -6.30378 z m 49.55331,-0.36802 h 7.50833 l 10.55549,23.53681 v -23.53681 h 6.61258 v 38.08382 h -6.8614 l -11.70414,-24.03055 v 24.03055 h -6.11086 z" />
<path
     transform="translate(-278.17367,-181.24609)"
     clip-path="url(#clipPath6644)"
     d="m 387.79806,821.73661 c -3.94556,-1.08587 -6.35718,-3.34766 -7.59078,-7.11919 -0.62586,-1.91352 -0.71111,-3.97871 -0.58964,-14.28719 0.13387,-11.36135 0.19631,-12.15099 1.09194,-13.81079 2.50835,-4.64849 7.77548,-6.8564 14.01401,-5.87453 6.48537,1.02074 9.40879,4.24841 10.20405,11.26595 l 0.26183,2.3106 h -4.02263 -4.0226 v -1.56225 c 0,-3.34584 -1.79596,-5.03949 -5.34391,-5.03949 -2.37076,0 -4.14893,1.73515 -4.55531,4.44512 -0.16062,1.07114 -0.22711,5.90611 -0.14773,10.74438 0.1202,7.32711 0.27172,9.02969 0.90688,10.19057 1.41847,2.59257 5.72702,3.03443 7.82395,0.80235 0.78638,-0.83707 1.08477,-1.784 1.2807,-4.06435 l 0.25547,-2.97301 h 3.74098 3.741 l -0.0279,3.30089 c -0.0417,4.91881 -1.96264,8.74107 -5.25342,10.45311 -3.45842,1.79924 -7.96095,2.26524 -11.76682,1.21783 z m 33.35816,-0.0232 c -3.10661,-0.85238 -5.50883,-2.70384 -6.8234,-5.25899 l -1.12433,-2.1854 v -12.99459 c 0,-12.47533 0.038,-13.06492 0.94994,-14.75504 1.83098,-3.39318 4.54767,-5.21025 8.79433,-5.88213 4.58693,-0.72567 9.46835,0.51594 12.00633,3.05392 3.17568,3.17568 3.67297,5.93745 3.48197,19.33765 -0.13802,9.68345 -0.21133,10.47658 -1.15839,12.53275 -1.68626,3.66104 -3.45433,5.07517 -7.78988,6.23047 -2.72526,0.7262 -5.4986,0.70004 -8.33657,-0.0787 z m 7.09924,-7.2254 c 0.943,-0.57498 1.55581,-1.40462 1.86804,-2.52902 0.6512,-2.34503 0.56671,-19.73096 -0.10542,-21.68716 -0.60625,-1.76454 -2.03902,-2.63643 -4.34766,-2.64569 -4.68473,-0.0187 -5.20811,1.37241 -5.17518,13.75607 0.0285,10.70977 0.29069,12.03236 2.61585,13.19391 1.99301,0.99561 3.40674,0.97141 5.14437,-0.0881 z m 26.54402,7.27251 c -4.11105,-1.14093 -6.17067,-2.90061 -7.71161,-6.58862 -1.00258,-2.39949 -0.97484,-24.55737 0.0347,-27.615 1.68625,-5.10787 7.70643,-7.99049 14.442,-6.91514 3.35566,0.53573 5.53961,1.68073 7.43951,3.90036 2.47065,2.88641 2.74002,4.55184 2.74002,16.94122 0,11.79916 -0.17396,13.01046 -2.32701,16.20211 -2.5578,3.79162 -9.08357,5.61088 -14.61749,4.07507 z m 6.90948,-7.27531 c 2.14781,-1.3096 2.4268,-3.07362 2.25872,-14.28204 -0.12603,-8.4038 -0.25053,-9.87199 -0.91778,-10.82303 -1.66222,-2.3691 -6.63388,-2.41153 -8.17028,-0.0697 -0.62541,0.95327 -0.762,2.64387 -0.88013,10.89414 -0.16088,11.23705 0.11348,12.97623 2.25274,14.28063 1.79026,1.09157 3.66647,1.09157 5.45673,0 z m 19.05045,6.8205 c -0.004,-0.13044 -0.0102,-9.19906 -0.013,-20.15246 l -0.006,-19.91528 h 7.82517 c 8.72992,0 10.49574,0.33539 13.38724,2.54267 2.73978,2.09147 4.04853,5.01558 4.08199,9.12044 0.0353,4.33668 -0.95882,6.92913 -3.52277,9.18601 -2.57366,2.26542 -5.36511,3.13725 -10.04508,3.13725 h -3.75838 l -0.11995,8.03212 -0.11994,8.03213 -3.85103,0.12717 c -2.11808,0.0699 -3.85414,0.0204 -3.85797,-0.11005 z m 15.88501,-23.96963 c 1.15345,-1.15346 1.28649,-1.57728 1.28649,-4.09875 0,-2.56004 -0.12031,-2.92753 -1.34143,-4.09743 -1.19006,-1.14016 -1.71158,-1.30388 -4.62123,-1.45081 l -3.27978,-0.16563 v 5.54958 5.54955 h 3.33471 c 3.09893,0 3.4257,-0.091 4.62124,-1.28651 z m 16.85334,24.16312 v -40.37911 h 21.53153 v 7.10475 H 521.6423 v 9.17301 h 10.1186 v 7.1113 h -10.07711 l -0.1104,9.95764 h 13.4559 v 7.03241 z m 30.40676,-0.5407 c -0.11606,-0.30257 -0.15935,-9.36347 -0.0961,-20.13533 l 0.11478,-19.5852 6.60176,-0.13433 c 7.56663,-0.154 10.79685,0.35448 13.61805,2.14363 2.96315,1.87916 4.32899,4.5774 4.56175,9.01159 0.29697,5.65817 -1.10589,8.76343 -4.97074,11.00284 -0.728,0.42184 -0.50745,1.13184 2.79284,8.99135 1.97079,4.69336 3.58327,8.69586 3.58327,8.89449 0,0.19861 -1.84505,0.36111 -4.10012,0.36111 h -4.10011 l -1.05329,-2.53067 c -0.57932,-1.39186 -2.05647,-5.00633 -3.28255,-8.03213 l -2.22929,-5.50146 h -1.74973 -1.74974 l -0.11996,8.03212 -0.11996,8.03214 h -3.74488 c -2.58996,0 -3.80994,-0.16966 -3.95587,-0.55015 z m 15.74273,-24.06484 c 1.213,-1.35759 1.30237,-1.67998 1.12926,-4.07327 -0.15133,-2.09204 -0.42017,-2.83127 -1.37834,-3.78982 -1.07432,-1.07475 -1.50046,-1.19083 -4.37167,-1.19083 h -3.18132 l -0.12867,4.40116 c -0.19315,6.60669 -0.24432,6.51451 3.50167,6.30287 2.87487,-0.16245 3.2121,-0.2881 4.42907,-1.65011 z m 25.79041,24.21171 c -3.72585,-1.21225 -6.246,-3.71435 -6.99619,-6.94608 -0.21361,-0.92016 -0.39309,-8.25828 -0.39887,-16.30691 l -0.0105,-14.63388 h 3.08081 3.08083 v 13.57796 c 0,14.43932 0.14424,15.64754 2.12274,17.78035 0.97593,1.05206 1.45641,1.21032 3.67416,1.21032 2.16252,0 2.75729,-0.18449 3.90206,-1.21032 0.80752,-0.7236 1.51405,-1.91826 1.75693,-2.97079 0.22343,-0.96825 0.41097,-7.76058 0.41675,-15.09408 l 0.0105,-13.33364 2.97079,0.13013 2.97078,0.13014 0.12095,14.52385 c 0.13192,15.84263 -0.0143,17.13404 -2.24762,19.84338 -2.07255,2.51438 -4.29593,3.38006 -9.09631,3.54167 -2.2996,0.0774 -4.71061,-0.0314 -5.35781,-0.2421 z m 86.58475,-0.25343 c -5.76602,-2.05405 -6.82963,-4.97575 -6.84036,-18.78487 -0.008,-9.91595 0.35298,-12.46051 2.14467,-15.13925 3.16087,-4.72575 12.99844,-5.6114 17.69318,-1.59284 1.89005,1.61779 2.30635,2.39366 3.30359,6.15719 0.76821,2.89908 0.85449,18.00385 0.12054,21.09779 -1.16611,4.91567 -3.23564,7.44457 -6.93278,8.47152 -2.27108,0.63084 -7.45083,0.51645 -9.48884,-0.20954 z m 8.51688,-6.12255 c 0.54654,-0.58177 1.1705,-1.8196 1.38657,-2.75074 0.55055,-2.37255 0.50704,-18.06416 -0.0558,-20.09073 -0.58628,-2.11127 -2.53547,-3.38369 -5.18591,-3.38636 -1.59161,-0.002 -2.49639,-0.008 -3.4109,1.49476 -2.16045,3.5506 -1.4964,8.08118 -1.4964,11.91206 0,6.80421 0.17049,10.74901 0.49164,11.37702 0.92402,1.80685 2.23,2.4811 4.82307,2.49195 2.02953,0.009 2.62583,-0.17316 3.44767,-1.04796 10e-6,-10e-6 5e-5,1e-5 6e-5,0 z m -390.4481,-10.27525 -0.11532,-16.6144 -4.33744,-0.22007 -4.33746,-0.22005 -0.0636,-2.97104 -0.0637,-2.97102 12.39573,2.3e-4 12.39575,2.6e-4 0.14759,2.89914 c 0.0811,1.59452 0.0652,2.98088 -0.0358,3.08081 -0.1009,0.0999 -2.10971,0.18167 -4.4641,0.18167 -3.45242,0 -4.33117,0.13144 -4.54137,0.67922 -0.14335,0.37356 -0.21405,7.8996 -0.15712,16.7245 l 0.10352,16.04531 -3.40561,-7e-5 -3.40561,-9e-5 z m 23.87103,-3.19086 V 781.458 h 3.51099 3.51102 l 0.11995,8.03213 0.11997,8.03211 h 5.72151 5.72151 l 0.11996,-8.03211 0.11995,-8.03213 h 3.511 3.511 v 19.80524 19.80524 h -3.52094 -3.52092 v -8.27418 c 0,-5.84867 -0.15481,-8.42902 -0.52814,-8.80232 -0.72639,-0.72641 -10.10047,-0.72641 -10.82686,0 -0.37333,0.3733 -0.52813,2.95365 -0.52813,8.80232 v 8.27418 h -3.52094 -3.52093 z m 36.30961,0 V 781.458 h 10.01264 10.01265 v 3.0808 3.08082 h -6.61617 -6.61613 l 0.12443,4.95133 0.12445,4.95129 4.97107,0.12463 4.97109,0.12464 -0.12981,2.90837 -0.1298,2.90837 -4.19308,-0.0861 c -2.30618,-0.0474 -4.53428,0.0449 -4.95131,0.20495 -0.66112,0.2537 -0.75823,0.98949 -0.75823,5.74533 v 5.45435 h 7.04186 7.04187 v 3.08082 3.08081 h -10.45277 -10.45276 z m 263.2853,0.99026 0.0957,-18.81498 h 3.56191 3.56191 l 3.96112,8.80233 c 2.17862,4.84129 4.38053,9.74308 4.89312,10.89288 0.51262,1.1498 1.19379,2.09056 1.51374,2.09056 0.46672,0 0.58173,-2.17891 0.58173,-11.02303 v -11.02298 l 2.88537,0.13013 2.88538,0.13014 0.0854,18.81492 0.0854,18.81493 -3.21845,5e-5 -3.21844,7e-5 -1.31437,-2.97079 c -0.72293,-1.63394 -1.68682,-3.76301 -2.14203,-4.73126 -2.63162,-5.59776 -4.41047,-9.50565 -4.41047,-9.68922 0,-0.86809 -3.17046,-6.81169 -3.51873,-6.59644 -0.27865,0.17222 -0.44232,4.6609 -0.44232,12.13053 v 11.85718 h -2.9708 l -2.9708,10e-6 z m 35.33373,-0.11003 V 783.2185 h 3.08081 3.08081 v 18.22884 c 0,10.02587 0.12021,18.54212 0.26716,18.92502 0.22918,0.5972 -0.20874,0.69617 -3.08081,0.69617 h -3.34797 z m 49.6058,0.0216 -0.01,-19.26887 3.99533,0.0884 h 3.47051 l 0.66893,1.42628 c 1.9792,4.45822 0.51325,1.07946 1.9792,4.45822 1.46595,3.37876 0.31695,0.7966 1.46595,3.37876 1.59824,3.59174 -1.22808,-2.71205 1.59824,3.59174 l 2.82632,6.30379 c 1.95562,4.3618 0,0 2.01685,4.33382 v -12.38587 -11.10674 h 3.49058 2.96304 l 0.20314,19.26881 0.11478,18.77081 h -3.31131 -3.70905 c -6.51703,-13.99444 -1.82538,-4.01021 -6.51703,-13.99444 l -5.18711,-10.03611 v 12.08155 11.949 h -2.96779 -3.18556 z"
     style="display:inline;fill:#ed1b24;stroke-width:0.440115" />
<path
     transform="translate(-278.17367,-181.24609)"
     clip-path="url(#clipPath6638)"
     style="display:inline;fill:#a8a9ad;stroke-width:0.440115"
     d="m 387.79806,821.73661 c -3.94556,-1.08587 -6.35718,-3.34766 -7.59078,-7.11919 -0.62586,-1.91352 -0.71111,-3.97871 -0.58964,-14.28719 0.13387,-11.36135 0.19631,-12.15099 1.09194,-13.81079 2.50835,-4.64849 7.77548,-6.8564 14.01401,-5.87453 6.48537,1.02074 9.40879,4.24841 10.20405,11.26595 l 0.26183,2.3106 h -4.02263 -4.0226 v -1.56225 c 0,-3.34584 -1.79596,-5.03949 -5.34391,-5.03949 -2.37076,0 -4.14893,1.73515 -4.55531,4.44512 -0.16062,1.07114 -0.22711,5.90611 -0.14773,10.74438 0.1202,7.32711 0.27172,9.02969 0.90688,10.19057 1.41847,2.59257 5.72702,3.03443 7.82395,0.80235 0.78638,-0.83707 1.08477,-1.784 1.2807,-4.06435 l 0.25547,-2.97301 h 3.74098 3.741 l -0.0279,3.30089 c -0.0417,4.91881 -1.96264,8.74107 -5.25342,10.45311 -3.45842,1.79924 -7.96095,2.26524 -11.76682,1.21783 z m 33.35816,-0.0232 c -3.10661,-0.85238 -5.50883,-2.70384 -6.8234,-5.25899 l -1.12433,-2.1854 v -12.99459 c 0,-12.47533 0.038,-13.06492 0.94994,-14.75504 1.83098,-3.39318 4.54767,-5.21025 8.79433,-5.88213 4.58693,-0.72567 9.46835,0.51594 12.00633,3.05392 3.17568,3.17568 3.67297,5.93745 3.48197,19.33765 -0.13802,9.68345 -0.21133,10.47658 -1.15839,12.53275 -1.68626,3.66104 -3.45433,5.07517 -7.78988,6.23047 -2.72526,0.7262 -5.4986,0.70004 -8.33657,-0.0787 z m 7.09924,-7.2254 c 0.943,-0.57498 1.55581,-1.40462 1.86804,-2.52902 0.6512,-2.34503 0.56671,-19.73096 -0.10542,-21.68716 -0.60625,-1.76454 -2.03902,-2.63643 -4.34766,-2.64569 -4.68473,-0.0187 -5.20811,1.37241 -5.17518,13.75607 0.0285,10.70977 0.29069,12.03236 2.61585,13.19391 1.99301,0.99561 3.40674,0.97141 5.14437,-0.0881 z m 26.54402,7.27251 c -4.11105,-1.14093 -6.17067,-2.90061 -7.71161,-6.58862 -1.00258,-2.39949 -0.97484,-24.55737 0.0347,-27.615 1.68625,-5.10787 7.70643,-7.99049 14.442,-6.91514 3.35566,0.53573 5.53961,1.68073 7.43951,3.90036 2.47065,2.88641 2.74002,4.55184 2.74002,16.94122 0,11.79916 -0.17396,13.01046 -2.32701,16.20211 -2.5578,3.79162 -9.08357,5.61088 -14.61749,4.07507 z m 6.90948,-7.27531 c 2.14781,-1.3096 2.4268,-3.07362 2.25872,-14.28204 -0.12603,-8.4038 -0.25053,-9.87199 -0.91778,-10.82303 -1.66222,-2.3691 -6.63388,-2.41153 -8.17028,-0.0697 -0.62541,0.95327 -0.762,2.64387 -0.88013,10.89414 -0.16088,11.23705 0.11348,12.97623 2.25274,14.28063 1.79026,1.09157 3.66647,1.09157 5.45673,0 z m 19.05045,6.8205 c -0.004,-0.13044 -0.0102,-9.19906 -0.013,-20.15246 l -0.006,-19.91528 h 7.82517 c 8.72992,0 10.49574,0.33539 13.38724,2.54267 2.73978,2.09147 4.04853,5.01558 4.08199,9.12044 0.0353,4.33668 -0.95882,6.92913 -3.52277,9.18601 -2.57366,2.26542 -5.36511,3.13725 -10.04508,3.13725 h -3.75838 l -0.11995,8.03212 -0.11994,8.03213 -3.85103,0.12717 c -2.11808,0.0699 -3.85414,0.0204 -3.85797,-0.11005 z m 15.88501,-23.96963 c 1.15345,-1.15346 1.28649,-1.57728 1.28649,-4.09875 0,-2.56004 -0.12031,-2.92753 -1.34143,-4.09743 -1.19006,-1.14016 -1.71158,-1.30388 -4.62123,-1.45081 l -3.27978,-0.16563 v 5.54958 5.54955 h 3.33471 c 3.09893,0 3.4257,-0.091 4.62124,-1.28651 z m 16.89205,23.62242 c -0.11606,-0.30257 -0.15934,-9.36347 -0.0961,-20.13533 l 0.11478,-19.5852 10.69147,-0.11787 10.69148,-0.1179 -0.12867,3.41876 -0.12869,3.41878 -6.60173,0.22006 c -3.63097,0.12102 -6.55226,0.36858 -6.49172,0.55013 0.0605,0.18156 0.11002,2.2051 0.11002,4.49679 v 4.16669 l 4.95131,0.12444 4.95129,0.12444 0.13605,2.39712 c 0.25531,4.49912 0.34286,4.4247 -5.20576,4.4247 -2.65809,0 -4.83896,0.14853 -4.84641,0.33008 -0.008,0.18153 -0.0353,2.40965 -0.0619,4.95131 l -0.0485,4.62123 6.77367,0.22006 6.7737,0.22005 0.12854,3.41092 0.12854,3.41089 h -10.81515 c -8.24619,0 -10.86528,-0.13069 -11.02617,-0.55015 z m 30.36805,0 c -0.11606,-0.30257 -0.15935,-9.36347 -0.0961,-20.13533 l 0.11478,-19.5852 6.60176,-0.13433 c 7.56663,-0.154 10.79685,0.35448 13.61805,2.14363 2.96315,1.87916 4.32899,4.5774 4.56175,9.01159 0.29697,5.65817 -1.10589,8.76343 -4.97074,11.00284 -0.728,0.42184 -0.50745,1.13184 2.79284,8.99135 1.97079,4.69336 3.58327,8.69586 3.58327,8.89449 0,0.19861 -1.84505,0.36111 -4.10012,0.36111 h -4.10011 l -1.05329,-2.53067 c -0.57932,-1.39186 -2.05647,-5.00633 -3.28255,-8.03213 l -2.22929,-5.50146 h -1.74973 -1.74974 l -0.11996,8.03212 -0.11996,8.03214 h -3.74488 c -2.58996,0 -3.80994,-0.16966 -3.95587,-0.55015 z m 15.74273,-24.06484 c 1.213,-1.35759 1.30237,-1.67998 1.12926,-4.07327 -0.15133,-2.09204 -0.42017,-2.83127 -1.37834,-3.78982 -1.07432,-1.07475 -1.50046,-1.19083 -4.37167,-1.19083 h -3.18132 l -0.12867,4.40116 c -0.19315,6.60669 -0.24432,6.51451 3.50167,6.30287 2.87487,-0.16245 3.2121,-0.2881 4.42907,-1.65011 z m 25.79041,24.21171 c -3.72585,-1.21225 -6.246,-3.71435 -6.99619,-6.94608 -0.21361,-0.92016 -0.39309,-8.25828 -0.39887,-16.30691 l -0.0105,-14.63388 h 3.08081 3.08083 v 13.57796 c 0,14.43932 0.14424,15.64754 2.12274,17.78035 0.97593,1.05206 1.45641,1.21032 3.67416,1.21032 2.16252,0 2.75729,-0.18449 3.90206,-1.21032 0.80752,-0.7236 1.51405,-1.91826 1.75693,-2.97079 0.22343,-0.96825 0.41097,-7.76058 0.41675,-15.09408 l 0.0105,-13.33364 2.97079,0.13013 2.97078,0.13014 0.12095,14.52385 c 0.13192,15.84263 -0.0143,17.13404 -2.24762,19.84338 -2.07255,2.51438 -4.29593,3.38006 -9.09631,3.54167 -2.2996,0.0774 -4.71061,-0.0314 -5.35781,-0.2421 z m 86.58475,-0.25343 c -5.76602,-2.05405 -6.82963,-4.97575 -6.84036,-18.78487 -0.008,-9.91595 0.35298,-12.46051 2.14467,-15.13925 3.16087,-4.72575 12.99844,-5.6114 17.69318,-1.59284 1.89005,1.61779 2.30635,2.39366 3.30359,6.15719 0.76821,2.89908 0.85449,18.00385 0.12054,21.09779 -1.16611,4.91567 -3.23564,7.44457 -6.93278,8.47152 -2.27108,0.63084 -7.45083,0.51645 -9.48884,-0.20954 z m 8.51688,-6.12255 c 0.54654,-0.58177 1.1705,-1.8196 1.38657,-2.75074 0.55055,-2.37255 0.50704,-18.06416 -0.0558,-20.09073 -0.58628,-2.11127 -2.53547,-3.38369 -5.18591,-3.38636 -1.59161,-0.002 -2.49639,-0.008 -3.4109,1.49476 -2.16045,3.5506 -1.4964,8.08118 -1.4964,11.91206 0,6.80421 0.17049,10.74901 0.49164,11.37702 0.92402,1.80685 2.23,2.4811 4.82307,2.49195 2.02953,0.009 2.62583,-0.17316 3.44767,-1.04796 10e-6,-10e-6 5e-5,1e-5 6e-5,0 z M 290.09126,804.45414 v -16.60488 h -4.45283 -4.33746 l -0.0636,-3.42068 -0.0637,-2.97078 h 12.39573 12.39575 l 0.14759,2.89939 -0.0358,3.49207 h -4.4641 -4.61993 v 17.17413 16.04531 l -3.38065,-7e-5 -3.521,-9e-5 z m 23.87096,-3.19086 V 781.4578 h 3.51099 3.78502 v 8.03233 8.03211 h 5.68742 5.68743 v -8.03211 -8.03233 h 3.785 3.511 v 19.80544 19.80524 h -3.52094 -3.77506 v -8.27418 -8.80232 h -11.37485 v 8.80232 8.27418 h -3.77508 -3.52093 z m 36.30961,0 V 781.4578 h 10.01264 10.45277 v 3.081 3.31046 h -7.05629 -6.5207 v 4.72169 5.07593 h 5.12452 4.84129 v 3.033 2.8428 h -4.32289 -5.64292 v 5.92975 5.45435 h 6.97524 6.60175 v 3.08082 3.08081 h -10.01265 -10.45276 z m 263.2853,0.99026 0.0957,-18.81498 h 3.56191 3.56191 l 3.96112,8.80233 c 2.17862,4.84129 4.38053,9.74308 4.89312,10.89288 0.51262,1.1498 1.19379,2.09056 1.51374,2.09056 0.46672,0 0.58173,-2.17891 0.58173,-11.02303 v -11.02298 l 2.88537,0.13013 2.88538,0.13014 0.0854,18.81492 0.0854,18.81493 -3.21845,5e-5 -3.21844,7e-5 -1.31437,-2.97079 c -0.72293,-1.63394 -1.68682,-3.76301 -2.14203,-4.73126 -2.63162,-5.59776 -4.41047,-9.50565 -4.41047,-9.68922 0,-0.86809 -3.17046,-6.81169 -3.51873,-6.59644 -0.27865,0.17222 -0.44232,4.6609 -0.44232,12.13053 v 11.85718 h -2.9708 l -2.9708,10e-6 z m 35.33373,-0.11003 V 783.2185 h 3.08081 3.08081 v 18.22884 c 0,10.02587 0.12021,18.54212 0.26716,18.92502 0.22918,0.5972 -0.20874,0.69617 -3.08081,0.69617 h -3.34797 z m 49.6058,0.0216 -0.01,-19.26887 3.99533,0.0884 h 3.47051 l 0.66893,1.42628 c 1.9792,4.45822 0.51325,1.07946 1.9792,4.45822 1.46595,3.37876 0.31695,0.7966 1.46595,3.37876 1.59824,3.59174 -1.22808,-2.71205 1.59824,3.59174 l 2.82632,6.30379 c 1.95562,4.3618 0,0 2.01685,4.33382 v -12.38587 -11.10674 h 3.49058 2.96304 l 0.20314,19.26881 0.11478,18.77081 h -3.31131 -3.70905 c -6.51703,-13.99444 -1.82538,-4.01021 -6.51703,-13.99444 l -5.18711,-10.03611 v 12.08155 11.949 h -2.96779 -3.18556 z" />
</svg>