<?xml version="1.0" encoding="UTF-8" standalone="no"?>
<!-- Created with Inkscape (http://www.inkscape.org/) -->

<svg
   xmlns:dc="http://purl.org/dc/elements/1.1/"
   xmlns:cc="http://creativecommons.org/ns#"
   xmlns:rdf="http://www.w3.org/1999/02/22-rdf-syntax-ns#"
   xmlns:svg="http://www.w3.org/2000/svg"
   xmlns="http://www.w3.org/2000/svg"
   xmlns:sodipodi="http://sodipodi.sourceforge.net/DTD/sodipodi-0.dtd"
   xmlns:inkscape="http://www.inkscape.org/namespaces/inkscape"
   id="svg2985"
   version="1.1"
   inkscape:version="0.91 r13725"
   width="121.88487"
   height="58.649376"
   xml:space="preserve"
   sodipodi:docname="CUNY_New_LogoTR.svg"><title
     id="title3759">CUNY Logo</title><metadata
     id="metadata2991"><rdf:RDF><cc:Work
         rdf:about=""><dc:format>image/svg+xml</dc:format><dc:type
           rdf:resource="http://purl.org/dc/dcmitype/StillImage" /><dc:title>CUNY Logo</dc:title></cc:Work></rdf:RDF></metadata><defs
     id="defs2989"><clipPath
       clipPathUnits="userSpaceOnUse"
       id="clipPath3033"><path
         d="m 260,63 496,0 0,412.592 -496,0 L 260,63 z"
         id="path3035"
         inkscape:connector-curvature="0" /></clipPath><clipPath
       clipPathUnits="userSpaceOnUse"
       id="clipPath3041"><path
         d="m 288.4351,109.943 401.1527,0 0,346.5458 -401.1527,0 0,-346.5458 z"
         id="path3043"
         inkscape:connector-curvature="0" /></clipPath><clipPath
       clipPathUnits="userSpaceOnUse"
       id="clipPath3533"><path
         d="m 288,526.192 118.996,0 0,49.808 -118.996,0 0,-49.808 z"
         id="path3535"
         inkscape:connector-curvature="0" /></clipPath><clipPath
       clipPathUnits="userSpaceOnUse"
       id="clipPath3541"><path
         d="m 233.385,526.945 216.6845,0 0,231.1069 -216.6845,0 0,-231.1069 z"
         id="path3543"
         inkscape:connector-curvature="0" /></clipPath><clipPath
       clipPathUnits="userSpaceOnUse"
       id="clipPath3619"><path
         d="m 268.775,444.671 26.715,0 0,27.229 -26.715,0 0,-27.229 z"
         id="path3621"
         inkscape:connector-curvature="0" /></clipPath><clipPath
       clipPathUnits="userSpaceOnUse"
       id="clipPath3627"><path
         d="m 268.775,445.884 26.0156,0 0,26.0156 -26.0156,0 0,-26.0156 z"
         id="path3629"
         inkscape:connector-curvature="0" /></clipPath><clipPath
       clipPathUnits="userSpaceOnUse"
       id="clipPath3637"><path
         d="m 552.9741,444.671 26.7158,0 0,27.229 -26.7158,0 0,-27.229 z"
         id="path3639"
         inkscape:connector-curvature="0" /></clipPath><clipPath
       clipPathUnits="userSpaceOnUse"
       id="clipPath3645"><path
         d="m 552.9741,445.884 26.0156,0 0,26.0156 -26.0156,0 0,-26.0156 z"
         id="path3647"
         inkscape:connector-curvature="0" /></clipPath><clipPath
       clipPathUnits="userSpaceOnUse"
       id="clipPath3655"><path
         d="m 268.775,342.117 26.715,0 0,27.229 -26.715,0 0,-27.229 z"
         id="path3657"
         inkscape:connector-curvature="0" /></clipPath><clipPath
       clipPathUnits="userSpaceOnUse"
       id="clipPath3663"><path
         d="m 268.775,343.33 26.0156,0 0,26.0156 -26.0156,0 0,-26.0156 z"
         id="path3665"
         inkscape:connector-curvature="0" /></clipPath><clipPath
       clipPathUnits="userSpaceOnUse"
       id="clipPath3673"><path
         d="m 552.9741,342.117 26.7158,0 0,27.229 -26.7158,0 0,-27.229 z"
         id="path3675"
         inkscape:connector-curvature="0" /></clipPath><clipPath
       clipPathUnits="userSpaceOnUse"
       id="clipPath3681"><path
         d="m 552.9741,343.33 26.0156,0 0,26.0156 -26.0156,0 0,-26.0156 z"
         id="path3683"
         inkscape:connector-curvature="0" /></clipPath><clipPath
       clipPathUnits="userSpaceOnUse"
       id="clipPath3691"><path
         d="m 268.775,248.228 26.715,0 0,27.229 -26.715,0 0,-27.229 z"
         id="path3693"
         inkscape:connector-curvature="0" /></clipPath><clipPath
       clipPathUnits="userSpaceOnUse"
       id="clipPath3699"><path
         d="m 268.775,249.441 26.0156,0 0,26.0156 -26.0156,0 0,-26.0156 z"
         id="path3701"
         inkscape:connector-curvature="0" /></clipPath><clipPath
       clipPathUnits="userSpaceOnUse"
       id="clipPath3709"><path
         d="m 552.9741,248.228 26.7158,0 0,27.229 -26.7158,0 0,-27.229 z"
         id="path3711"
         inkscape:connector-curvature="0" /></clipPath><clipPath
       clipPathUnits="userSpaceOnUse"
       id="clipPath3717"><path
         d="m 552.9741,249.441 26.0156,0 0,26.0156 -26.0156,0 0,-26.0156 z"
         id="path3719"
         inkscape:connector-curvature="0" /></clipPath><clipPath
       clipPathUnits="userSpaceOnUse"
       id="clipPath3727"><path
         d="m 268.775,148.441 26.715,0 0,27.229 -26.715,0 0,-27.229 z"
         id="path3729"
         inkscape:connector-curvature="0" /></clipPath><clipPath
       clipPathUnits="userSpaceOnUse"
       id="clipPath3735"><path
         d="m 268.775,149.654 26.0156,0 0,26.0156 -26.0156,0 0,-26.0156 z"
         id="path3737"
         inkscape:connector-curvature="0" /></clipPath><clipPath
       clipPathUnits="userSpaceOnUse"
       id="clipPath3745"><path
         d="m 552.9741,148.441 26.7158,0 0,27.229 -26.7158,0 0,-27.229 z"
         id="path3747"
         inkscape:connector-curvature="0" /></clipPath><clipPath
       clipPathUnits="userSpaceOnUse"
       id="clipPath3753"><path
         d="m 552.9741,149.654 26.0156,0 0,26.0156 -26.0156,0 0,-26.0156 z"
         id="path3755"
         inkscape:connector-curvature="0" /></clipPath></defs><sodipodi:namedview
     pagecolor="#ffffff"
     bordercolor="#666666"
     borderopacity="1"
     objecttolerance="10"
     gridtolerance="10"
     guidetolerance="10"
     inkscape:pageopacity="0"
     inkscape:pageshadow="2"
     inkscape:window-width="1280"
     inkscape:window-height="744"
     id="namedview2987"
     showgrid="false"
     fit-margin-top="0"
     fit-margin-left="0"
     fit-margin-right="0"
     fit-margin-bottom="0"
     inkscape:zoom="1.0824912"
     inkscape:cx="133.20125"
     inkscape:cy="-83.626669"
     inkscape:window-x="-4"
     inkscape:window-y="-4"
     inkscape:window-maximized="1"
     inkscape:current-layer="g2993" /><g
     id="g2993"
     inkscape:groupmode="layer"
     inkscape:label="CUNYBrandBook06242011"
     transform="matrix(1.25,0,0,-1.25,-361.79875,717.33063)"><path
       d="m 296.0164,540.3093 0,-13.2435 4.698,0 -4.6391,13.2435"
       style="fill:#1e59ae;fill-opacity:1;fill-rule:nonzero;stroke:none"
       id="path3545"
       inkscape:connector-curvature="0" /><path
       d="m 312.7774,555.4203 c 1.3214,0 1.9382,0.7635 1.9382,2.3199 l 0,16.0024 -3.8763,0 0,-16.0024 c 0,-1.5564 0.6162,-2.3199 1.9381,-2.3199"
       style="fill:#1e59ae;fill-opacity:1;fill-rule:nonzero;stroke:none"
       id="path3547"
       inkscape:connector-curvature="0" /><path
       d="m 318.3562,573.7426 0,-15.8557 c 0,-3.6412 -2.1143,-5.6377 -5.5788,-5.6377 -3.4651,0 -5.5793,1.9965 -5.5793,5.6377 l 0,15.8557 -6.9561,0 c 2.331,-0.7706 3.4674,-2.9745 3.4674,-5.5199 l 0,-1.5564 -3.6406,0 0,1.6447 c 0,1.7909 -0.8224,2.5537 -1.762,2.5537 -1.4681,0 -1.9381,-0.7628 -1.9381,-2.3481 l 0,-10.7476 c 0,-1.5852 0.47,-2.3487 1.9381,-2.3487 1.3213,0 1.762,0.7635 1.762,2.1432 l 0,2.5549 3.6406,0 0,-2.4371 c 0,-2.995 -1.762,-5.4321 -5.4026,-5.4321 -3.8168,0 -5.5794,2.4371 -5.5794,5.4321 l 0,10.9231 c 0,2.3835 1.1205,4.4082 3.4993,5.1382 l -6.7877,0 0,-46.6768 3.2884,0 0,21.2011 3.3773,0 4.4336,-12.1273 0.0589,0 0,12.1273 3.2884,0 0,-21.2011 7.0114,0 0,8.8094 -4.4041,12.3917 3.6995,0 2.5544,-8.0754 0.0589,0 2.4371,8.0754 3.6996,0 -4.4042,-12.3917 0,-8.8094 21.577,0 0,46.6768"
       style="fill:#1e59ae;fill-opacity:1;fill-rule:nonzero;stroke:none"
       id="path3549"
       inkscape:connector-curvature="0" /><path
       d="m 292.7274,568.6044 0,-10.9231 c 0,-2.995 1.7626,-5.4321 5.5794,-5.4321 3.6406,0 5.4026,2.4371 5.4026,5.4321 l 0,2.4371 -3.6406,0 0,-2.5549 c 0,-1.3797 -0.4407,-2.1432 -1.762,-2.1432 -1.4681,0 -1.9381,0.7635 -1.9381,2.3487 l 0,10.7476 c 0,1.5853 0.47,2.3481 1.9381,2.3481 0.9396,0 1.762,-0.7628 1.762,-2.5537 l 0,-1.6447 3.6406,0 0,1.5564 c 0,2.5454 -1.1364,4.7493 -3.4674,5.5199 l -4.0153,0 c -2.3788,-0.73 -3.4993,-2.7547 -3.4993,-5.1382"
       style="fill:#ffffff;fill-opacity:1;fill-rule:nonzero;stroke:none"
       id="path3551"
       inkscape:connector-curvature="0" /><path
       d="m 300.5972,548.2669 0,-12.1273 -0.0589,0 -4.4336,12.1273 -3.3773,0 0,-21.2011 3.289,0 0,13.2435 0.0589,0 4.6391,-13.2435 3.1712,0 0,21.2011"
       style="fill:#ffffff;fill-opacity:1;fill-rule:nonzero;stroke:none"
       id="path3553"
       inkscape:connector-curvature="0" /><path
       d="m 318.9424,548.2669 -3.6996,0 -2.4371,-8.0754 -0.0589,0 -2.5544,8.0754 -3.6995,0 4.4041,-12.3917 0,-8.8094 3.6412,0 0,8.8094"
       style="fill:#ffffff;fill-opacity:1;fill-rule:nonzero;stroke:none"
       id="path3555"
       inkscape:connector-curvature="0" /><path
       d="m 312.7774,552.2492 c 3.4645,0 5.5788,1.9965 5.5788,5.6377 l 0,15.8557 -3.6406,0 0,-16.0024 c 0,-1.5564 -0.6168,-2.3199 -1.9382,-2.3199 -1.3219,0 -1.9381,0.7635 -1.9381,2.3199 l 0,16.0024 -3.6412,0 0,-15.8557 c 0,-3.6412 2.1142,-5.6377 5.5793,-5.6377"
       style="fill:#ffffff;fill-opacity:1;fill-rule:nonzero;stroke:none"
       id="path3557"
       inkscape:connector-curvature="0" /><path
       d="m 339.6693,573.7426 6.0041,0 0,-0.6557 -2.6009,0 0,-8.1196 -0.8024,0 0,8.1196 -2.6008,0"
       style="fill:#1e59ae;fill-opacity:1;fill-rule:nonzero;stroke:none"
       id="path3559"
       inkscape:connector-curvature="0" /><path
       d="m 346.8038,564.9673 0,8.7753 0.73,0 0,-3.4522 c 0.6798,0.7057 1.2394,1.1187 2.1625,1.1187 1.3131,0 1.8722,-0.7528 1.8722,-2.1272 l 0,-4.3146 -0.7293,0 0,4.2415 c 0,1.0457 -0.3158,1.6171 -1.2884,1.6171 -0.7776,0 -1.2153,-0.4742 -2.017,-1.2035 l 0,-4.6551"
       style="fill:#1e59ae;fill-opacity:1;fill-rule:nonzero;stroke:none"
       id="path3561"
       inkscape:connector-curvature="0" /><path
       d="m 356.9169,568.6869 c -0.1461,1.3007 -0.7169,2.1266 -1.8227,2.139 -1.2889,0.0124 -1.8362,-1.3001 -1.8485,-2.139 l 3.6712,0 z m -3.6712,-0.5833 c 0,-1.4344 0.5961,-2.6751 2.0306,-2.6751 0.8141,0 1.2153,0.2799 1.8474,1.2766 l 0.5956,-0.3157 c -0.681,-1.1182 -1.3008,-1.5441 -2.5043,-1.5441 -1.653,0 -2.6981,1.0581 -2.6981,3.2825 0,1.9564 0.9968,3.2813 2.6015,3.2813 1.7137,0 2.5278,-1.349 2.5278,-3.3055"
       style="fill:#1e59ae;fill-opacity:1;fill-rule:nonzero;stroke:none"
       id="path3563"
       inkscape:connector-curvature="0" /><path
       d="m 366.7744,571.1658 c -0.3771,1.2884 -1.0817,2.0424 -2.1397,2.0424 -1.7378,0 -2.5042,-1.7019 -2.5042,-3.8527 0,-2.1514 0.7664,-3.8533 2.5897,-3.8533 1.4097,0 1.9204,0.9962 2.2114,2.139 l 0.7547,-0.1331 c -0.3288,-1.5688 -1.1435,-2.6628 -2.9785,-2.6628 -2.1267,0 -3.3791,1.7991 -3.3791,4.5102 0,2.7104 1.2524,4.509 3.3791,4.509 1.5676,0 2.4306,-1.1064 2.8076,-2.5402"
       style="fill:#1e59ae;fill-opacity:1;fill-rule:nonzero;stroke:none"
       id="path3565"
       inkscape:connector-curvature="0" /><path
       d="m 369.6427,564.9673 -0.7293,0 0,6.3204 0.7293,0 0,-6.3204 z m -0.7293,7.706 0,1.0693 0.7293,0 0,-1.0693"
       style="fill:#1e59ae;fill-opacity:1;fill-rule:nonzero;stroke:none"
       id="path3567"
       inkscape:connector-curvature="0" /><path
       d="m 371.6963,571.2877 0,2.066 0.7293,0 0,-2.066 1.3861,0 0,-0.5837 -1.3861,0 0,-4.6304 c 0,-0.4253 0.1949,-0.6451 0.6444,-0.6451 0.2427,0 0.5102,0.0613 0.7417,0.1344 l 0,-0.6074 c -0.2439,-0.0371 -0.499,-0.1102 -0.7417,-0.1102 -1.0338,0 -1.3737,0.3406 -1.3737,1.1064 l 0,4.7523 -0.9479,0 0,0.5837"
       style="fill:#1e59ae;fill-opacity:1;fill-rule:nonzero;stroke:none"
       id="path3569"
       inkscape:connector-curvature="0" /><path
       d="m 377.1779,566.1461 0.0247,0 1.762,5.1416 0.7776,0 -2.3576,-6.7699 c -0.4253,-1.2401 -0.8748,-1.7873 -2.0177,-1.7873 -0.3157,0 -0.5107,0.0247 -0.6804,0.073 l 0,0.5956 c 0.218,-0.0242 0.4495,-0.0848 0.7293,-0.0848 0.5102,0 1.0692,0.4495 1.4221,1.7502 l -2.2003,6.2232 0.8024,0"
       style="fill:#1e59ae;fill-opacity:1;fill-rule:nonzero;stroke:none"
       id="path3571"
       inkscape:connector-curvature="0" /><path
       d="m 340.7361,561.0363 0,-5.98 c 0,-1.6772 0.8147,-2.261 2.3706,-2.261 1.5564,0 2.3699,0.5838 2.3699,2.261 l 0,5.98 0.8024,0 0,-5.907 c 0,-1.9935 -1.0451,-2.9903 -3.1723,-2.9903 -2.1267,0 -3.1723,0.9968 -3.1723,2.9903 l 0,5.907"
       style="fill:#1e59ae;fill-opacity:1;fill-rule:nonzero;stroke:none"
       id="path3573"
       inkscape:connector-curvature="0" /><path
       d="m 347.5791,552.2604 0,6.3205 0.7293,0 0,-0.9968 c 0.6804,0.7046 1.2401,1.1181 2.1638,1.1181 1.3125,0 1.8716,-0.7535 1.8716,-2.1266 l 0,-4.3152 -0.7294,0 0,4.2421 c 0,1.0451 -0.3157,1.6165 -1.2877,1.6165 -0.7782,0 -1.2159,-0.4742 -2.0183,-1.2029 l 0,-4.6557"
       style="fill:#1e59ae;fill-opacity:1;fill-rule:nonzero;stroke:none"
       id="path3575"
       inkscape:connector-curvature="0" /><path
       d="m 354.4468,552.2604 -0.7293,0 0,6.3205 0.7293,0 0,-6.3205 z m -0.7293,7.706 0,1.0699 0.7293,0 0,-1.0699"
       style="fill:#1e59ae;fill-opacity:1;fill-rule:nonzero;stroke:none"
       id="path3577"
       inkscape:connector-curvature="0" /><path
       d="m 355.4795,558.5809 0.7782,0 1.7261,-5.2018 0.0241,0 1.7502,5.2018 0.7782,0 -2.1761,-6.3205 -0.7169,0"
       style="fill:#1e59ae;fill-opacity:1;fill-rule:nonzero;stroke:none"
       id="path3579"
       inkscape:connector-curvature="0" /><path
       d="m 365.2397,555.9794 c -0.1461,1.3008 -0.7175,2.1272 -1.8232,2.1396 -1.2884,0.0123 -1.8357,-1.3008 -1.848,-2.1396 l 3.6712,0 z m -3.6712,-0.5832 c 0,-1.4339 0.5961,-2.674 2.0306,-2.674 0.8141,0 1.2153,0.2799 1.8474,1.2766 l 0.5956,-0.3163 c -0.681,-1.1176 -1.3008,-1.5435 -2.5043,-1.5435 -1.653,0 -2.6981,1.0575 -2.6981,3.2813 0,1.957 0.9968,3.2819 2.6015,3.2819 1.7137,0 2.5279,-1.3491 2.5279,-3.306"
       style="fill:#1e59ae;fill-opacity:1;fill-rule:nonzero;stroke:none"
       id="path3581"
       inkscape:connector-curvature="0" /><path
       d="m 367.1237,552.2604 0,6.3205 0.7293,0 0,-1.2036 0.0241,0 c 0.3405,0.7782 1.0209,1.3249 1.8233,1.3249 l 0.3281,0 0,-0.7045 -0.3281,0 c -0.8024,0 -1.8474,-0.9485 -1.8474,-2.1638 l 0,-3.5735"
       style="fill:#1e59ae;fill-opacity:1;fill-rule:nonzero;stroke:none"
       id="path3583"
       inkscape:connector-curvature="0" /><path
       d="m 371.0011,553.7927 c 0.595,-0.8519 1.1299,-1.0705 1.957,-1.0705 0.8018,0 1.4097,0.5226 1.4097,1.2036 0,1.835 -3.7195,0.8017 -3.7195,3.0509 0,1.1912 0.9361,1.7255 2.0058,1.7255 1.0575,0 1.7255,-0.4135 2.1756,-1.1423 l -0.5591,-0.3888 c -0.4259,0.5832 -0.8877,0.9479 -1.6412,0.9479 -0.7051,0 -1.2518,-0.3405 -1.2518,-1.1058 0,-1.544 3.7195,-0.632 3.7195,-3.0874 0,-1.1305 -1.0456,-1.7868 -2.1879,-1.7868 -0.9726,0 -1.848,0.3888 -2.4436,1.276"
       style="fill:#1e59ae;fill-opacity:1;fill-rule:nonzero;stroke:none"
       id="path3585"
       inkscape:connector-curvature="0" /><path
       d="m 377.0288,552.2604 -0.7287,0 0,6.3205 0.7287,0 0,-6.3205 z m -0.7287,7.706 0,1.0699 0.7287,0 0,-1.0699"
       style="fill:#1e59ae;fill-opacity:1;fill-rule:nonzero;stroke:none"
       id="path3587"
       inkscape:connector-curvature="0" /><path
       d="m 378.9616,558.5809 0,2.066 0.7293,0 0,-2.066 1.3856,0 0,-0.5832 -1.3856,0 0,-4.631 c 0,-0.4259 0.195,-0.6445 0.6439,-0.6445 0.2433,0 0.5108,0.0608 0.7417,0.1338 l 0,-0.608 c -0.2427,-0.0359 -0.4984,-0.109 -0.7417,-0.109 -1.0327,0 -1.3732,0.3399 -1.3732,1.1058 l 0,4.7529 -0.9484,0 0,0.5832"
       style="fill:#1e59ae;fill-opacity:1;fill-rule:nonzero;stroke:none"
       id="path3589"
       inkscape:connector-curvature="0" /><path
       d="m 384.3825,553.4398 0.0242,0 1.7626,5.1411 0.7776,0 -2.3582,-6.77 c -0.4247,-1.2395 -0.8748,-1.7867 -2.0177,-1.7867 -0.3157,0 -0.5101,0.0241 -0.6804,0.073 l 0,0.5956 c 0.2186,-0.0242 0.4501,-0.0854 0.7293,-0.0854 0.5102,0 1.0699,0.4501 1.4222,1.7502 l -2.1998,6.2233 0.8018,0"
       style="fill:#1e59ae;fill-opacity:1;fill-rule:nonzero;stroke:none"
       id="path3591"
       inkscape:connector-curvature="0" /><path
       d="m 340.6418,542.8549 c 0,-1.7138 0.5715,-2.6982 1.8722,-2.6982 1.3001,0 1.8716,0.9844 1.8716,2.6982 0,1.7136 -0.5715,2.6986 -1.8716,2.6986 -1.3007,0 -1.8722,-0.985 -1.8722,-2.6986 z m 4.4731,0 c 0,-1.7138 -0.6327,-3.2814 -2.6009,-3.2814 -1.9693,0 -2.6015,1.5676 -2.6015,3.2814 0,1.7136 0.6322,3.2818 2.6015,3.2818 1.9682,0 2.6009,-1.5682 2.6009,-3.2818"
       style="fill:#1e59ae;fill-opacity:1;fill-rule:nonzero;stroke:none"
       id="path3593"
       inkscape:connector-curvature="0" /><path
       d="m 347.2657,545.4321 0,-5.7372 -0.7287,0 0,5.7372 -1.0451,0 0,0.5832 1.0451,0 0,0.8996 c 0,1.094 0.4371,1.6771 1.5193,1.6771 0.2674,0 0.5225,-0.0482 0.79,-0.0971 l 0,-0.608 c -0.231,0.0731 -0.4495,0.122 -0.7176,0.122 -0.5708,0 -0.863,-0.2793 -0.863,-1.0091 l 0,-0.9845 1.289,0 0,-0.5832"
       style="fill:#1e59ae;fill-opacity:1;fill-rule:nonzero;stroke:none"
       id="path3595"
       inkscape:connector-curvature="0" /><path
       d="m 339.9344,535.8416 1.349,0 4.1684,-7.3172 0.0248,0 0,7.3172 0.8024,0 0,-8.7758 -0.8272,0 -4.6909,8.1201 -0.0248,0 0,-8.1201 -0.8017,0"
       style="fill:#1e59ae;fill-opacity:1;fill-rule:nonzero;stroke:none"
       id="path3597"
       inkscape:connector-curvature="0" /><path
       d="m 351.8454,530.7859 c -0.1455,1.3002 -0.717,2.1267 -1.8227,2.139 -1.289,0.0124 -1.8357,-1.3007 -1.848,-2.139 l 3.6707,0 z m -3.6707,-0.5838 c 0,-1.4338 0.5961,-2.6739 2.03,-2.6739 0.8147,0 1.2153,0.2792 1.8474,1.276 l 0.5956,-0.3157 c -0.6804,-1.1181 -1.3007,-1.5435 -2.5043,-1.5435 -1.6524,0 -2.698,1.0574 -2.698,3.2819 0,1.9564 0.9973,3.2813 2.6014,3.2813 1.7137,0 2.5279,-1.3491 2.5279,-3.3061"
       style="fill:#1e59ae;fill-opacity:1;fill-rule:nonzero;stroke:none"
       id="path3599"
       inkscape:connector-curvature="0" /><path
       d="m 353.1703,533.3868 0.7416,0 1.3856,-5.0804 0.0242,0 1.4468,5.0804 0.7169,0 1.4103,-5.0804 0.0242,0 1.4215,5.0804 0.754,0 -1.8356,-6.321 -0.717,0 -1.422,5.0809 -0.0242,0 -1.4103,-5.0809 -0.7535,0"
       style="fill:#1e59ae;fill-opacity:1;fill-rule:nonzero;stroke:none"
       id="path3601"
       inkscape:connector-curvature="0" /><path
       d="m 366.2854,530.7859 -2.6863,5.0557 0.8989,0 2.1638,-4.3387 2.3093,4.3387 0.8995,0 -2.7829,-5.0557 0,-3.7201 -0.8023,0"
       style="fill:#1e59ae;fill-opacity:1;fill-rule:nonzero;stroke:none"
       id="path3603"
       inkscape:connector-curvature="0" /><path
       d="m 369.761,530.2269 c 0,-1.7143 0.5721,-2.6987 1.8728,-2.6987 1.2996,0 1.871,0.9844 1.871,2.6987 0,1.7137 -0.5714,2.698 -1.871,2.698 -1.3007,0 -1.8728,-0.9843 -1.8728,-2.698 z m 4.4731,0 c 0,-1.7143 -0.6321,-3.2819 -2.6003,-3.2819 -1.9693,0 -2.6015,1.5676 -2.6015,3.2819 0,1.7137 0.6322,3.2813 2.6015,3.2813 1.9682,0 2.6003,-1.5676 2.6003,-3.2813"
       style="fill:#1e59ae;fill-opacity:1;fill-rule:nonzero;stroke:none"
       id="path3605"
       inkscape:connector-curvature="0" /><path
       d="m 375.255,527.0658 0,6.321 0.7293,0 0,-1.2035 0.0248,0 c 0.3404,0.7782 1.0209,1.3249 1.8232,1.3249 l 0.3282,0 0,-0.7046 -0.3282,0 c -0.8023,0 -1.848,-0.9484 -1.848,-2.1638 l 0,-3.574"
       style="fill:#1e59ae;fill-opacity:1;fill-rule:nonzero;stroke:none"
       id="path3607"
       inkscape:connector-curvature="0" /><path
       d="m 379.169,527.0658 0,8.7758 0.7293,0 0,-5.8097 2.9296,3.3549 0.8383,0 -2.0542,-2.3581 2.3705,-3.9629 -0.8147,0 -2.0177,3.4521 -1.2518,-1.4097 0,-2.0424"
       style="fill:#1e59ae;fill-opacity:1;fill-rule:nonzero;stroke:none"
       id="path3609"
       inkscape:connector-curvature="0" /></g></svg>