<?xml version="1.0" encoding="utf-8"?>
<!-- Generator: Adobe Illustrator 22.0.1, SVG Export Plug-In . SVG Version: 6.00 Build 0)  -->
<svg version="1.1" id="Layer_1" xmlns="http://www.w3.org/2000/svg" xmlns:xlink="http://www.w3.org/1999/xlink" x="0px" y="0px"
	 width="226.26px" height="250.1px" viewBox="0 0 226.26 250.1" enable-background="new 0 0 226.26 250.1" xml:space="preserve">
<g>
	<path fill="#00703C" d="M0.05,125.05c0,68.92,50.73,125,113.09,125s113.09-56.08,113.09-125c0-68.93-50.73-125-113.09-125
		S0.05,56.12,0.05,125.05 M6.25,125.05c0-65.51,47.95-118.8,106.89-118.8s106.89,53.29,106.89,118.8s-47.95,118.8-106.89,118.8
		S6.25,190.56,6.25,125.05 M39.24,125.05c0,47.31,33.15,85.81,73.89,85.81s73.89-38.49,73.89-85.81s-33.15-85.81-73.89-85.81
		S39.24,77.74,39.24,125.05 M44.41,125.05c0-44.47,30.83-80.64,68.72-80.64s68.72,36.17,68.72,80.64s-30.83,80.64-68.72,80.64
		S44.41,169.52,44.41,125.05 M23.05,167.34l0.02,0.06l12.96-3.72c2.55-0.73,3.31-0.95,2.49-3.8l0.55-0.16l2.01,7.01l-0.54,0.16
		c-0.82-2.85-1.58-2.63-4.13-1.9l-12.41,3.57c-2.42,0.7-3.19,1.24-2.45,3.79l-0.55,0.16l-1.64-5.71L32.97,155l-17.78-2.67
		l-1.63-5.68l0.55-0.16c0.82,2.85,1.58,2.63,4.13,1.9l12.38-3.56c2.55-0.73,3.31-0.95,2.49-3.8l0.54-0.16l2.46,8.56l-0.54,0.16
		c-0.82-2.85-1.58-2.63-4.13-1.9l-12.95,3.73l0.02,0.06l19.01,2.84l0.14,0.49L23.05,167.34z M25.18,127.39l0.36,7.19l-8.6-3.21
		L25.18,127.39z M26.3,126.93l2.56-1.26c0.62-0.28,1.66-0.84,2.36-0.88c1.1-0.05,1.4,0.72,1.53,2.07l0.57-0.02l-0.41-8.23
		l-0.57,0.03c0.02,2.34-1.71,3.02-3.57,3.91l-16.67,7.94l0.03,0.57l17.97,6.63c2.25,0.84,3.11,1.46,3.35,3.09l0.57-0.03l-0.32-6.56
		l-0.57,0.03c-0.04,1.17-0.1,2.44-1.27,2.5c-0.6,0.03-1.6-0.36-2.14-0.59L26.7,135L26.3,126.93z M29.83,113.41
		c2.62,0.43,3.4,0.55,3.87-2.38l0.56,0.09l-1.17,7.19l-0.56-0.09c0.48-2.93-0.3-3.06-2.92-3.48l-13.96-2.27
		c-1.59,0.89-2.48,1.64-2.82,3.73l-0.56-0.09l0.91-5.61l17.47-10.04l0.01-0.06L19.2,98.54c-2.61-0.43-3.39-0.55-3.87,2.38
		l-0.56-0.09l1.17-7.2l0.56,0.09c-0.48,2.93,0.3,3.06,2.92,3.48l17.01,2.77l-0.09,0.56l-18.78,10.82l-0.01,0.07L29.83,113.41z
		 M32.42,77.22l-5.25-2.16c-2.45-1.01-3.18-1.31-4.31,1.44l-0.52-0.22l3.38-8.24l0.52,0.22c-1.13,2.74-0.4,3.05,2.05,4.05
		l11.91,4.89c2.45,1.01,3.18,1.31,4.31-1.44l0.52,0.22l-3.39,8.24l-0.52-0.22c1.13-2.75,0.4-3.05-2.05-4.05l-5.6-2.3l-3.69,8.99
		l5.6,2.31c2.45,1.01,3.18,1.31,4.31-1.44l0.52,0.21l-3.38,8.24l-0.52-0.22c1.13-2.74,0.4-3.04-2.05-4.05l-11.91-4.9
		c-2.45-1.01-3.19-1.31-4.31,1.44l-0.53-0.22l3.38-8.23L21.42,80c-1.13,2.74-0.4,3.05,2.05,4.05l5.26,2.16L32.42,77.22z M47.65,58.6
		l-4.3,5.77l-4.59-7.95L47.65,58.6z M48.81,58.95l2.78,0.65c0.66,0.17,1.82,0.41,2.38,0.82c0.88,0.66,0.62,1.45-0.14,2.57l0.45,0.34
		l4.92-6.61l-0.46-0.34c-1.47,1.82-3.24,1.24-5.23,0.74l-17.91-4.48l-0.34,0.45l9.64,16.54c1.21,2.08,1.47,3.1,0.62,4.51l0.45,0.34
		l3.92-5.27l-0.45-0.34c-0.77,0.88-1.63,1.82-2.57,1.12c-0.48-0.36-1-1.3-1.28-1.82l-1.6-2.77C43.98,65.43,48.81,58.95,48.81,58.95z
		 M63.87,47.53c1.73,2.01,2.24,2.61,4.49,0.67l0.37,0.43l-6.75,5.8l-0.37-0.43c2.25-1.93,1.73-2.53,0.01-4.54L51.49,37.68
		l-2.37,2.04c-1.98,1.71-1.55,3.42-0.4,5.01l-0.43,0.37l-3.02-3.86L58.2,30.13l3.35,3.57l-0.43,0.37c-1.39-1.38-3.02-2.07-5.01-0.36
		l-2.37,2.04L63.87,47.53z M80.99,36.57c1.18,2.37,1.53,3.08,4.19,1.76l0.25,0.51l-7.97,3.96l-0.25-0.51
		c2.65-1.32,2.31-2.03,1.12-4.4l-6.92-13.91l-2.79,1.39c-2.35,1.17-2.35,2.93-1.62,4.76l-0.51,0.25l-1.98-4.48l15.26-7.59l2.37,4.28
		l-0.51,0.25c-1.01-1.68-2.42-2.74-4.77-1.58l-2.79,1.39L80.99,36.57z M100.99,26.13l-7.06,1.37l1.96-8.96L100.99,26.13z
		 M101.61,27.17l1.61,2.36c0.37,0.57,1.07,1.53,1.2,2.21c0.21,1.08-0.52,1.48-1.84,1.8l0.11,0.56l8.09-1.56l-0.11-0.56
		c-2.31,0.35-3.24-1.27-4.37-2.98L96.1,13.61l-0.56,0.11L91.5,32.43c-0.51,2.35-1.01,3.28-2.59,3.75l0.11,0.56l6.45-1.24l-0.11-0.56
		c-1.16,0.13-2.43,0.25-2.65-0.9c-0.11-0.59,0.13-1.63,0.28-2.2l0.68-3.12C93.68,28.7,101.61,27.17,101.61,27.17z M117.14,29.17
		c-0.37,2.63-0.48,3.41,2.46,3.82l-0.08,0.56l-7.22-1.01l0.08-0.56c2.94,0.41,3.05-0.37,3.41-3l1.95-14
		c-0.93-1.57-1.7-2.44-3.8-2.73l0.08-0.56l5.63,0.79L130.1,29.7l0.06,0.01l1.6-11.5c0.36-2.63,0.48-3.41-2.47-3.82l0.08-0.56
		l7.22,1.01l-0.08,0.56c-2.94-0.41-3.05,0.37-3.41,3l-2.38,17.07l-0.56-0.08l-11.25-18.52l-0.06-0.01L117.14,29.17z M165.58,36.5
		l-0.4-0.25c1.02-3.55,0.48-6.73-2.86-8.77c-3.59-2.18-7.92-1.02-11.53,4.91c-3.65,5.98-1.2,10.19,1.87,12.06
		c2.86,1.74,4.77,1.46,8.21-0.46l0.38,0.33c-1.11,1.25-3.48,3.8-2.91,3.2c0.09-0.09-0.41,0.46-0.41,0.46s-0.36-0.11-1.01-0.35
		c-1.12-0.41-3.31-1.12-5.99-2.65c-5.23-2.99-6.25-9.37-3.17-14.41c3.22-5.28,9.55-7.41,15.02-4.07c1.4,0.85,2.34,1.87,3.23,3.26
		c0.15,0.24,0.35,0.58,0.62,0.74c0.59,0.36,1.35-0.1,1.81-0.6l0.45,0.28L165.58,36.5z M168.3,57.84c-3.51-3.8-0.81-8.36,2.64-11.55
		c3.46-3.19,8.22-5.53,11.73-1.73c3.51,3.8,0.81,8.36-2.64,11.56C176.57,59.3,171.81,61.64,168.3,57.84 M167.46,58.61
		c4.22,4.57,10.67,4.06,14.96,0.1c4.29-3.96,5.3-10.36,1.08-14.92s-10.67-4.06-14.96-0.1C164.25,47.65,163.24,54.04,167.46,58.61
		 M182.86,71.76c-1.39,0.76-2.41,1.32-1.74,2.56l2.24,4.1c1.21,2.22,2.88,3.11,6.47,2.66l0.16,0.49l-5.85,1.14l-7.73-14.19l0.5-0.27
		c1.42,2.6,2.11,2.23,4.44,0.96l11.31-6.16c2.33-1.27,3.02-1.65,1.6-4.25l0.49-0.27l4.52,8.29l-0.5,0.27
		c-1.68-3.08-2.48-2.64-4.97-1.28L182.86,71.76z M191.77,91.55c-1.51,0.45-2.63,0.77-2.23,2.14l1.32,4.48
		c0.71,2.42,2.15,3.64,5.77,3.96l0.05,0.51l-5.96-0.12l-4.56-15.51l0.54-0.16c0.84,2.85,1.6,2.63,4.14,1.87l12.35-3.63
		c2.54-0.74,3.3-0.97,2.47-3.82l0.54-0.16l2.66,9.05l-0.54,0.16c-0.99-3.37-1.87-3.1-4.59-2.31L191.77,91.55z M203.82,112.84
		l0.2,2.18c0.2,2.49,0.52,3.44,3.33,3.42l0.05,0.56l-7.27,0.56l-0.05-0.57c2.75-0.47,3-1.34,2.8-3.89l-0.2-2.18l-7.61,0.59
		c-1.29,0.1-1.55,0.5-1.44,1.82l0.33,4.28c0.22,2.77,1.59,3.68,4.51,5.09l0.04,0.6l-5.36-1.36l-1.26-16.14l0.57-0.05
		c0.23,2.96,1.01,2.9,3.66,2.69l12.84-1c2.64-0.21,3.43-0.27,3.2-3.22l0.56-0.05l1.24,15.99l-4.54,0.64l-0.05-0.63
		c3.13-0.85,3.32-1.71,3.08-4.67l-0.41-5.32L203.82,112.84z M192.4,146.79c-0.92-2.31-1.24-4.86-0.93-7.37
		c1.14-9.18,8.23-10.72,11.93-10.26c4.82,0.6,10.75,4.93,9.83,12.35c-0.19,1.53-0.62,2.66-1.17,3.77c-0.22,0.45-0.82,1.46-0.87,1.86
		c-0.09,0.69,0.69,0.85,1.22,0.95l-0.07,0.56l-6.61-0.28l0.07-0.57c3.57-0.6,5.88-2.54,6.34-6.24c0.65-5.26-3.78-8.23-8.48-8.81
		c-5.98-0.74-10.53,2.07-11.11,6.79c-0.16,1.32-0.03,3.02,0.61,4.34l3.35,0.47c2.63,0.32,3.42,0.42,3.78-2.52l0.56,0.07l-1.02,8.24
		l-0.56-0.07c0.24-2.01-0.43-2.46-2.63-2.73L192.4,146.79z M199.8,157.67l-0.94,2.64c-0.77,2.37-0.83,3.38,1.78,4.43l-0.18,0.54
		l-6.93-2.25l0.18-0.54c2.72,0.62,3.28-0.09,4.08-2.52l0.94-2.65l-7.26-2.36c-1.23-0.4-1.62-0.13-2.03,1.14l-1.33,4.08
		c-0.86,2.64,0.06,4,2.22,6.43l-0.18,0.57l-4.43-3.3l5-15.4l0.54,0.18c-0.92,2.82-0.16,3.06,2.36,3.89l12.25,3.98
		c2.52,0.82,3.28,1.06,4.19-1.76l0.54,0.18l-4.96,15.25l-4.44-1.15l0.2-0.6c3.22,0.41,3.72-0.32,4.64-3.14l1.65-5.07L199.8,157.67z
		 M34.77,189.25c-2.13,1.57-2.77,2.04-1.01,4.43l-0.46,0.34l-4.32-5.88l0.45-0.34c1.76,2.39,2.4,1.93,4.53,0.35l11.39-8.39
		c0.47-1.76,0.56-2.92-0.7-4.62l0.46-0.34l3.37,4.58l-5.04,19.51l0.04,0.05l9.35-6.88c2.14-1.58,2.77-2.04,1.01-4.43l0.45-0.34
		l4.33,5.87l-0.46,0.34c-1.76-2.39-2.4-1.92-4.53-0.35l-13.88,10.22l-0.34-0.46l5.4-20.99l-0.04-0.05L34.77,189.25z M59.19,205.86
		l1.61,1.28c1.95,1.56,2.87,1.97,4.77-0.1l0.44,0.36l-4.56,5.69l-0.44-0.36c1.54-2.33,1.07-3.11-0.92-4.7l-1.61-1.29l-4.77,5.97
		c-0.81,1.01-0.69,1.47,0.34,2.3l3.35,2.68c2.17,1.74,3.77,1.36,6.8,0.19l0.47,0.38l-4.65,2.99l-12.64-10.12l0.36-0.44
		c2.32,1.85,2.81,1.23,4.47-0.83l8.05-10.06c1.66-2.07,2.15-2.69-0.16-4.54l0.36-0.44l12.52,10.02l-2.64,3.75l-0.49-0.39
		c1.52-2.87,1.01-3.6-1.3-5.45l-4.16-3.33L59.19,205.86z M97.65,220.78c0.48-0.6,1.41-1.75,1.65-2.43c0.4-1.13-0.34-1.69-1.68-2.16
		l0.19-0.54l5.9,2.06l-0.19,0.54c-1.96-0.68-2.96,0.81-4.05,2.2l-11.41,14.44l-0.56-0.2l-0.09-14.08l-0.06-0.02l-8.76,10.98
		l-0.6-0.21l-0.12-19.14c0-2.11-0.04-2.96-1.82-3.58l0.19-0.54l7.3,2.56l-0.19,0.54c-1.07-0.38-2.02-0.44-2.38,0.58
		c-0.17,0.47-0.14,1.35-0.15,1.86l0.01,12.88l0.06,0.02l6.5-8.06l-0.03-2.49c-0.04-1.88-0.02-3.38-1.98-4.07l0.18-0.54l7.72,2.7
		l-0.19,0.54c-1.25-0.43-2.15-0.65-2.58,0.6c-0.3,0.87-0.25,2.25-0.24,3.16l0.07,11.46l0.06,0.02L97.65,220.78z M128.7,219.95
		c0.29-0.65,0.87-1.88,0.76-2.6c-0.17-1.15-1.16-1.36-2.31-1.19l-0.09-0.56l7.22-1.06l0.08,0.56c-2,0.3-2.95,1.84-3.76,3.68
		l-4.02,9.05l0.71,4.81c0.39,2.62,0.5,3.41,3.44,2.97l0.08,0.56l-8.8,1.3l-0.08-0.56c2.93-0.43,2.82-1.21,2.43-3.84l-0.67-4.53
		l-7.84-8.8c-0.92-1.05-2.21-1.59-3.28-1.43l-0.08-0.56l8.84-1.3l0.08,0.56c-1.22,0.18-2.37,0.58-2.2,1.73
		c0.07,0.5,0.6,1.06,0.91,1.43l5.64,6.41L128.7,219.95z M151.54,228.61c-4.69,2.18-8.21-1.79-10.19-6.06
		c-1.98-4.27-2.74-9.52,1.95-11.7c4.7-2.18,8.21,1.79,10.19,6.06C155.47,221.18,156.24,226.44,151.54,228.61 M152.02,229.64
		c5.64-2.62,7.14-8.91,4.68-14.21c-2.46-5.3-8.24-8.22-13.88-5.6c-5.64,2.62-7.14,8.91-4.68,14.21
		C140.6,229.34,146.38,232.26,152.02,229.64 M159.24,202.1c0.56-0.65,1.1-1.33,1.77-1.91c1.93-1.68,4.45-1.37,6.11,0.54
		c2.3,2.64,0.62,5.52-1.64,7.49l-0.52,0.45L159.24,202.1z M181.83,208.21l-0.37-0.43c-1.69,1.2-3.41,2.13-5.38-0.47
		c-2.65-3.5-6.39-1.95-6.39-1.95c1.7-2.23,2.01-4.78,0.02-7.06c-1.2-1.38-4.39-3.37-9.04,0.67l-6.84,5.95l0.38,0.43
		c2.24-1.95,2.76-1.35,4.5,0.65l8.45,9.72c1.74,2,2.26,2.59,0.02,4.54l0.38,0.43l6.71-5.84l-0.37-0.43
		c-2.24,1.95-2.76,1.35-4.5-0.65l-3.77-4.34l2.78-2.38c0,0,3.49-0.13,6.03,2.62c1.86,2.01,4.57,1.05,4.57,1.05
		S181.83,208.21,181.83,208.21z M191.48,188.18c2.34-0.46,5-0.95,6.51-2.98l0.47,0.32l-5.63,8.2l-0.47-0.32
		c0.36-0.48,0.88-1.77,0.14-1.93c-0.92-0.21-1.71-0.29-2.45-0.15l-8.24,0.5l5.28,3.62c2.18,1.5,2.83,1.95,4.52-0.5l0.46,0.32
		l-5.03,7.34l-0.47-0.32c1.68-2.45,1.03-2.89-1.16-4.4l-10.62-7.28c-2.19-1.5-2.84-1.95-4.52,0.5l-0.47-0.32l5.03-7.34l0.47,0.32
		c-1.68,2.45-1.03,2.89,1.16,4.39l5.02,3.45l-1.03-6.98c-0.15-1.17-0.8-4.07-1.48-4.54c-0.76-0.52-1.26,0.16-1.85,1.03l-0.47-0.32
		l4.34-6.32l0.47,0.32c-1.21,1.7-0.73,4.47-0.38,6.4l1.41,7.55L191.48,188.18z M36.36,176.36c0,1.16-0.94,2.09-2.09,2.09
		c-1.15,0-2.09-0.93-2.09-2.09c0-1.15,0.94-2.09,2.09-2.09C35.43,174.27,36.36,175.21,36.36,176.36 M193.73,176.36
		c0,1.16-0.93,2.09-2.09,2.09c-1.15,0-2.09-0.93-2.09-2.09c0-1.15,0.94-2.09,2.09-2.09C192.8,174.27,193.73,175.21,193.73,176.36
		 M56.76,104.61l-0.09,0.44c-2.59-0.33-4.98,0.93-5.5,3.6c-0.27,1.39,0.5,3,1.96,3.29c3.38,0.66,5.68-8.04,10.45-7.11
		c2.53,0.49,4.26,2.9,3.66,5.99c-0.22,1.12-0.59,1.88-0.96,2.47c-0.35,0.61-0.66,1.06-0.77,1.64c-0.11,0.56,0.28,0.76,0.76,0.9
		l-0.08,0.44l-5.53-1.07l0.09-0.44c3.96,0.39,5.22-2.45,5.5-3.88c0.32-1.63-0.23-3.38-2-3.73c-3.7-0.72-5.8,7.77-10.62,6.83
		c-2.48-0.49-3.87-3.08-3.38-5.61c0.17-0.88,0.53-1.57,0.89-2.1c0.33-0.57,0.67-0.98,0.73-1.3c0.11-0.59-0.29-0.81-0.76-1.01
		l0.08-0.44L56.76,104.61z M67.03,98.82c1.96,0.7,2.54,0.91,3.33-1.28l0.42,0.15l-2.36,6.58l-0.42-0.15
		c0.79-2.19,0.21-2.4-1.75-3.11l-9.52-3.42c-1.96-0.7-2.54-0.92-3.33,1.28l-0.42-0.15l2.36-6.58l0.42,0.15
		c-0.79,2.19-0.2,2.4,1.76,3.11L67.03,98.82z M77.14,83.67c-0.04,1.95-0.58,3.9-1.57,5.62c-3.61,6.31-9.22,5.26-11.75,3.81
		c-3.32-1.9-6.29-6.83-3.36-11.93c0.6-1.05,1.25-1.74,1.99-2.38c0.29-0.26,1.03-0.81,1.19-1.08c0.27-0.47-0.24-0.83-0.59-1.06
		l0.22-0.38l4.71,2.21l-0.22,0.39c-2.77-0.65-5.03,0.05-6.49,2.6c-2.07,3.61,0.24,7.11,3.47,8.96c4.11,2.36,8.25,1.7,10.11-1.55
		c0.52-0.9,0.94-2.18,0.88-3.33l-2.32-1.32c-1.8-1.03-2.34-1.35-3.5,0.68l-0.39-0.22l3.24-5.66l0.39,0.22
		c-0.79,1.38-0.43,1.9,1.08,2.76L77.14,83.67z M79.46,77.95c1.41,1.54,1.82,2,3.54,0.43l0.3,0.33l-4.23,3.86l-0.3-0.33
		c1.72-1.57,1.3-2.03-0.11-3.57l-7.49-8.2c-1.41-0.22-2.33-0.2-3.55,0.92l-0.3-0.33l3.29-3.01l15.66,2.32l0.04-0.03l-6.15-6.74
		c-1.4-1.54-1.82-2-3.54-0.42l-0.3-0.33l4.23-3.86l0.31,0.33c-1.73,1.57-1.3,2.03,0.1,3.57l9.12,10l-0.33,0.3l-16.84-2.48
		l-0.04,0.03L79.46,77.95z M86.19,59.34c-0.85-1.9-1.1-2.47-3.23-1.52l-0.18-0.41l6.38-2.84l0.18,0.41
		c-2.13,0.95-1.88,1.51-1.03,3.42l2.67,5.98c0.39,0.88,1.22,2.49,1.84,3.17c1.19,1.26,2.98,1.28,4.48,0.61
		c1.48-0.66,2.85-1.95,3.15-3.6c0.24-1.41-0.54-3.18-1.09-4.4l-2.48-5.57c-0.85-1.9-1.1-2.47-3.23-1.52l-0.18-0.41l5.23-2.32
		l0.18,0.41c-2.13,0.95-1.88,1.51-1.03,3.42l2.97,6.68c1.21,2.72,1.51,6.25-3.21,8.35c-4.8,2.14-7.11-0.12-8.43-3.08L86.19,59.34z
		 M105.75,51.78h-0.05l0.05,10.59c0.01,2.08,0.02,2.7,2.34,2.69l0,0.45l-5.73,0.02v-0.45c2.33-0.01,2.33-0.63,2.32-2.71l-0.05-10.14
		c-0.01-1.98-0.26-2.68-2.34-2.67v-0.45l4.66-0.02l6.02,12.82l5.81-12.87l4.64-0.02v0.45c-2.33,0.01-2.33,0.63-2.32,2.72l0.05,10.11
		c0,2.08,0.01,2.7,2.34,2.69v0.45l-6.99,0.03v-0.45c2.33-0.01,2.33-0.63,2.31-2.71l-0.05-10.59h-0.05l-6.21,13.77l-0.4,0
		L105.75,51.78z M135.41,61.97l1.96,1.1c1.55,0.88,2.32,0.83,3.26-0.77l0.39,0.22l-2.74,4.83l-0.39-0.22
		c0.9-1.63,0.54-2.31-1.01-3.19l-1.96-1.1l-2.42,4.27c-1.03,1.81-1.33,2.35,0.7,3.5l-0.22,0.39l-6.08-3.44l0.22-0.39
		c2.03,1.15,2.33,0.61,3.36-1.2l4.98-8.8c1.03-1.81,1.34-2.35-0.69-3.5l0.22-0.39l10.61,6.01l-1.64,3.2l-0.37-0.21
		c0.61-2.48-0.09-3.15-2.1-4.29l-2.89-1.64L135.41,61.97z M143.79,75.2c-1.4,1.55-1.81,2-0.08,3.57l-0.3,0.33l-5.19-4.69l0.3-0.33
		c1.73,1.56,2.14,1.1,3.54-0.44l6.78-7.51c1.39-1.55,1.81-2.01,0.09-3.57l0.3-0.33l5.19,4.69l-0.3,0.33
		c-1.73-1.57-2.14-1.1-3.54,0.44L143.79,75.2z M160.3,75.63c0.63,0.54,1.19,1.17,1.66,1.87c2.39,3.59,0.95,7.29-2.43,9.54
		c-3.3,2.2-7.34,2.17-9.69-1.35c-0.48-0.72-0.86-1.51-1.16-2.32L160.3,75.63z M149,80.35c-1.73,1.15-2.25,1.5-3.54-0.44l-0.37,0.25
		l4.23,6.36c3.3,4.95,8.07,5.29,11.81,2.8c2.2-1.47,3.8-3.78,3.81-6.5c0-2.32-1.42-4.6-2.67-6.47l-3.51-5.28l-0.37,0.25
		c1.29,1.94,0.77,2.29-0.96,3.44L149,80.35z M164.45,95.93l0.66,1.79c0.66,1.84,1.1,2.5,3.23,1.91l0.15,0.42l-5.39,1.91l-0.15-0.42
		c1.99-0.92,2-1.63,1.33-3.52l-0.66-1.79l-5.66,2c-0.96,0.34-1.07,0.7-0.72,1.68l1.12,3.17c0.73,2.06,1.95,2.47,4.46,2.94l0.16,0.44
		l-4.34,0.07l-4.25-11.99l0.42-0.15c0.78,2.2,1.36,1.99,3.32,1.3l9.54-3.38c1.96-0.7,2.54-0.9,1.77-3.1l0.42-0.15l4.21,11.87
		l-3.31,1.41l-0.17-0.47c2.2-1.28,2.17-1.98,1.39-4.18l-1.4-3.95L164.45,95.93z M163.15,114.07c-2.05,0.33-2.67,0.43-2.3,2.73
		l-0.44,0.07l-1.11-6.9l0.44-0.07c0.37,2.3,0.98,2.2,3.04,1.87l9.99-1.6c2.05-0.33,2.67-0.43,2.3-2.73l0.44-0.07l1.11,6.9
		l-0.45,0.07c-0.37-2.3-0.98-2.2-3.04-1.87L163.15,114.07z M80.59,143.13c0,21.64,14.6,39.24,32.54,39.24s32.54-17.61,32.54-39.24
		s-14.6-39.24-32.54-39.24S80.59,121.49,80.59,143.13 M84.72,143.13c0-19.36,12.74-35.11,28.41-35.11s28.41,15.75,28.41,35.11
		s-12.74,35.11-28.41,35.11S84.72,162.49,84.72,143.13 M115.09,187.07c0,1.08-0.88,1.96-1.96,1.96c-1.08,0-1.96-0.88-1.96-1.96
		c0-1.08,0.88-1.96,1.96-1.96C114.22,185.11,115.09,185.98,115.09,187.07 M79.28,155.01c0,1.08-0.88,1.96-1.96,1.96
		s-1.96-0.88-1.96-1.96s0.88-1.96,1.96-1.96S79.28,153.92,79.28,155.01 M77.73,141.92c0,1.08-0.88,1.96-1.96,1.96
		c-1.08,0-1.96-0.88-1.96-1.96s0.88-1.96,1.96-1.96C76.85,139.96,77.73,140.84,77.73,141.92 M78.76,129.7
		c0,1.08-0.88,1.96-1.96,1.96c-1.08,0-1.96-0.88-1.96-1.96c0-1.08,0.88-1.96,1.96-1.96C77.88,127.74,78.76,128.61,78.76,129.7
		 M67.81,158.88c-2.14-1.71-6.72-6.07-7.88-7.62c-1.16-1.55-2.58-3.1-1.81-3.74c0.77-0.65,1.29,0.39,1.94,0.9
		c0.65,0.52,4.27,3.89,5.68,4.55c0.52,0.24,1.57,0.76,1.51-0.29c-0.06-1.02-0.26-1.46-0.99-2.19c-2.07-2.07-4.87-5.04-5.98-6.67
		c-1.12-1.64-2.41-4.39-2.75-5.42c-0.35-1.03-0.26-1.72,0.09-2.15c0.34-0.43,0.86-0.43,1.37,0.52c0.52,0.94,2.32,3.87,3.01,4.9
		c0.69,1.03,2.58,2.84,3.02,3.19c0.43,0.34,0.77,0.26,0.77-0.86s-0.09-2.24-0.52-3.01c-0.43-0.77-1.9-3.53-2.58-5.42
		c-0.69-1.89-1.55-4.82-1.9-6.11c-0.34-1.29-0.08-3.44,0.43-3.7c0.51-0.26,0.69,0,1.03,1.12c0.34,1.12,1.46,4.31,1.89,5.17
		c0.43,0.86,0.69,1.46,1.03,1.89c0.35,0.43,0.95,0.86,1.03-0.77c0.09-1.64-0.17-2.58-0.43-3.87c-0.26-1.29-0.87-4.99-0.77-6.29
		c0.08-1.29,0.17-4.05,0.68-4.74c0.52-0.68,1.38-0.77,1.38,0.43c0,1.2,0.17,4.22,0.43,4.99c0.26,0.77,0.69,1.89,1.29,0.52
		s2.5-4.56,3.87-6.11c1.38-1.55,3.88-3.7,6.29-3.53c2.41,0.17,5.51,1.63,5.08,4.56c-0.43,2.93-2.67,3.27-3.78,3.27
		c-1.12,0-3.01-0.68-4.39-2.41c-1.72,2.32-3.53,5.34-4.39,11.36c-0.87,6.02-0.43,14.46,0.34,20.23c0.77,5.77,3.87,12.23,5.08,13.78
		c1.29-2.41,2.24-2.71,3.36-2.76c2.15-0.09,3.94,1.28,3.9,4.21c-0.03,2.16-1.84,3.96-4.08,3.88c-2.24-0.08-5.08-1.2-7.49-4.99
		C70.17,161.9,71.03,161.47,67.81,158.88 M83.43,175.15c2.5,0,5.59,1.64,7.57,4.13c1.98,2.49,3.1,5.08,3.53,6.37
		c1.29-2.24,3.79-4.04,5.94-4.04c2.15,0,4.31,1.63,4.13,3.78s-1.38,2.68-2.58,2.76c-1.38,0.09-3.36-0.52-3.44-2.76
		c-1.21,1.03-1.98,3.01-1.55,5.42c0.43,2.41,1.72,7.1,6.02,7.32c1.72,0.09,2.32-0.69,2.32-0.69c-0.95-1.21-1.28-1.98-1.28-2.84
		c0-1.21,0.76-3.44,4.12-3.44c3.35,0,4.38,3.17,4.31,4.82c-0.09,1.89-2.24,5.77-6.81,5.6c-4.56-0.17-8.61-1.72-10.93-6.02
		c-2.32-4.31-2.84-7.66-3.61-10.07c-0.77-2.41-2.58-5.42-4.65-6.54c0.6,2.32-0.77,5.6-4.13,5.51c-3.36-0.09-4.31-2.67-4.31-4.56
		S79.73,175.15,83.43,175.15 M146.98,155.01c0,1.08,0.88,1.96,1.96,1.96c1.08,0,1.96-0.88,1.96-1.96s-0.88-1.96-1.96-1.96
		C147.86,153.05,146.98,153.92,146.98,155.01 M148.53,141.92c0,1.08,0.88,1.96,1.96,1.96c1.08,0,1.96-0.88,1.96-1.96
		s-0.88-1.96-1.96-1.96C149.41,139.96,148.53,140.84,148.53,141.92 M147.5,129.7c0,1.08,0.88,1.96,1.96,1.96
		c1.08,0,1.96-0.88,1.96-1.96c0-1.08-0.88-1.96-1.96-1.96C148.38,127.74,147.5,128.61,147.5,129.7 M158.46,158.88
		c2.14-1.71,6.71-6.07,7.88-7.62c1.16-1.55,2.58-3.1,1.81-3.74c-0.77-0.65-1.29,0.39-1.94,0.9c-0.64,0.52-4.27,3.89-5.68,4.55
		c-0.52,0.24-1.57,0.76-1.51-0.29c0.06-1.02,0.26-1.46,0.99-2.19c2.07-2.07,4.86-5.04,5.98-6.67c1.12-1.64,2.41-4.39,2.75-5.42
		c0.34-1.03,0.26-1.72-0.09-2.15c-0.34-0.43-0.86-0.43-1.37,0.52c-0.52,0.94-2.32,3.87-3.02,4.9c-0.69,1.03-2.58,2.84-3.01,3.19
		c-0.43,0.34-0.77,0.26-0.77-0.86s0.09-2.24,0.52-3.01c0.43-0.77,1.89-3.53,2.58-5.42c0.69-1.89,1.55-4.82,1.9-6.11
		c0.34-1.29,0.09-3.44-0.43-3.7c-0.52-0.26-0.69,0-1.03,1.12c-0.34,1.12-1.47,4.31-1.89,5.17c-0.43,0.86-0.69,1.46-1.03,1.89
		c-0.35,0.43-0.95,0.86-1.03-0.77c-0.09-1.64,0.17-2.58,0.43-3.87c0.26-1.29,0.86-4.99,0.77-6.29c-0.08-1.29-0.17-4.05-0.68-4.74
		c-0.52-0.68-1.38-0.77-1.38,0.43c0,1.2-0.17,4.22-0.43,4.99c-0.26,0.77-0.69,1.89-1.29,0.52c-0.6-1.38-2.5-4.56-3.87-6.11
		c-1.38-1.55-3.87-3.7-6.29-3.53c-2.41,0.17-5.51,1.63-5.08,4.56c0.43,2.93,2.67,3.27,3.78,3.27c1.12,0,3.02-0.68,4.39-2.41
		c1.72,2.32,3.53,5.34,4.39,11.36c0.86,6.02,0.43,14.46-0.34,20.23c-0.77,5.77-3.87,12.23-5.08,13.78
		c-1.29-2.41-2.24-2.71-3.36-2.76c-2.15-0.09-3.95,1.28-3.9,4.21c0.03,2.16,1.84,3.96,4.08,3.88c2.24-0.08,5.08-1.2,7.49-4.99
		C156.09,161.9,155.23,161.47,158.46,158.88 M142.83,175.15c-2.5,0-5.6,1.64-7.57,4.13c-1.98,2.49-3.1,5.08-3.53,6.37
		c-1.29-2.24-3.79-4.04-5.94-4.04c-2.15,0-4.31,1.63-4.13,3.78c0.18,2.15,1.38,2.68,2.58,2.76c1.38,0.09,3.36-0.52,3.44-2.76
		c1.21,1.03,1.98,3.01,1.55,5.42c-0.43,2.41-1.72,7.1-6.02,7.32c-1.72,0.09-2.32-0.69-2.32-0.69c0.95-1.21,1.28-1.98,1.28-2.84
		c0-1.21-0.76-3.44-4.12-3.44c-3.35,0-4.38,3.17-4.31,4.82c0.09,1.89,2.24,5.77,6.81,5.6c4.56-0.17,8.61-1.72,10.93-6.02
		c2.32-4.31,2.84-7.66,3.61-10.07c0.77-2.41,2.58-5.42,4.65-6.54c-0.6,2.32,0.77,5.6,4.13,5.51c3.36-0.09,4.31-2.67,4.31-4.56
		S146.53,175.15,142.83,175.15 M113.05,97.76c2.67,4.31,4.91,4.56,6.55,4.65c1.63,0.09,3.01-0.86,4.56-3.19
		c4.31,6.29,6.8,9.47,11.88,9.47c5.08,0,6.75-3.62,6.8-5.17c0.09-2.58-2.58-3.53-3.7-4.56c-1.12-1.03-0.6-1.89,0.52-2.24
		c1.12-0.34,3.44,0.86,4.74,2.07c1.29,1.21,3.36,3.19,3.36,3.19s0.43-3.24-0.35-5.25c-0.77-1.98-2.67-4.31-6.88-4.31
		c-4.99,0-6.2,3.87-6.11,5.25c0.09,1.38,0.77,2.15,0.86,3.44c0.09,1.29-1.03,1.81-1.89,1.81c-0.86,0-1.46-0.52-2.32-1.29
		c-0.86-0.77-3.36-3.36-5.08-5.08c-1.72-1.73-3.62-2.15-6.97-1.98c0.09-3.62,3.36-6.72,5.51-7.32c0.6,1.72,2.07,3.96,5.17,4.05
		c3.1,0.09,5.51-2.58,5.51-5.16s-1.81-5.6-6.45-5.68c-4.65-0.09-8.01,3.62-10.42,7.4c-2.01,3.17-2.32,4.91-2.32,4.91
		s-0.61-0.6-0.98-1.38c-0.29-0.59-0.22-3.78-0.22-5.94c1.37-0.51,4.13-2.15,4.13-5.42s-2.34-5.51-5.87-5.51
		c-3.35,0-5.85,2.24-5.85,5.51s2.76,4.91,4.13,5.42c0,2.16,0.06,5.35-0.23,5.94c-0.37,0.77-0.98,1.38-0.98,1.38
		s-0.31-1.74-2.32-4.91c-2.41-3.78-5.77-7.49-10.42-7.4c-4.65,0.09-6.46,3.1-6.46,5.68s2.41,5.25,5.51,5.16
		c3.1-0.09,4.56-2.32,5.16-4.05c2.16,0.6,5.42,3.7,5.51,7.32c-3.36-0.17-5.25,0.25-6.97,1.98c-1.72,1.72-4.22,4.31-5.08,5.08
		c-0.86,0.77-1.46,1.29-2.32,1.29c-0.86,0-1.98-0.52-1.89-1.81c0.08-1.29,0.77-2.07,0.86-3.44c0.09-1.38-1.12-5.25-6.11-5.25
		c-4.22,0-6.11,2.32-6.88,4.31c-0.79,2.01-0.35,5.25-0.35,5.25s2.07-1.98,3.36-3.19c1.29-1.21,3.62-2.41,4.74-2.07
		c1.12,0.34,1.64,1.21,0.52,2.24c-1.12,1.03-3.79,1.98-3.7,4.56c0.05,1.55,1.72,5.17,6.8,5.17c5.08,0,7.57-3.18,11.88-9.47
		c1.55,2.32,2.93,3.27,4.56,3.19C108.14,102.32,110.38,102.07,113.05,97.76 M139.34,130.54h-19.7c-0.22-0.69-6.51-20.03-6.51-20.03
		l-0.49,1.51c0,0-5.79,17.83-6.01,18.52h-19.7c0,0,15.35,11.96,15.88,12.38c-0.19,0.65-5.88,20.05-5.88,20.05
		s15.61-11.92,16.21-12.38c0.6,0.46,16.2,12.38,16.2,12.38s-5.69-19.4-5.88-20.05C123.99,142.5,139.34,130.54,139.34,130.54
		 M89.98,131.16h16.95l0,0c0,0.14,4.12,5.77,5.51,7.67C111.07,138.36,92.5,132.02,89.98,131.16 M112.87,150.01
		c-0.05-0.07-10.41,7.59-13.96,10.22c1.54-2.22,13.12-18.88,13.96-20.07C112.87,140.16,112.87,150.01,112.87,150.01z M136.23,131.15
		c-2.47,0.85-21.02,7.21-22.4,7.68c0.83-1.13,5.71-7.77,5.71-7.77S133.67,131.14,136.23,131.15 M113.39,113.74
		c0.84,2.55,5.57,16.89,5.65,17.11c-0.14,0.2-4.87,6.63-5.65,7.7V113.74z M127.6,159.93c-1.53-2.23-13.05-18.98-13.82-20.1
		c1.23,0.41,8.72,2.9,8.96,2.98C122.8,143.05,126.88,157.39,127.6,159.93 M112.61,154.08v18.49c0,0.29,0.23,0.52,0.52,0.52
		s0.52-0.23,0.52-0.52v-18.49c0-0.29-0.23-0.52-0.52-0.52S112.61,153.8,112.61,154.08 M109,156.49l-5.26,11.3
		c-0.12,0.26,0,0.57,0.25,0.68c0.26,0.12,0.57,0.01,0.68-0.25l5.26-11.3c0.12-0.26,0.01-0.56-0.25-0.68S109.12,156.23,109,156.49
		 M97.55,147.82l-5.33,6.7c-0.18,0.23-0.14,0.55,0.08,0.73c0.22,0.18,0.55,0.14,0.73-0.08l5.33-6.7c0.18-0.22,0.14-0.55-0.08-0.73
		C98.05,147.56,97.73,147.59,97.55,147.82 M97.63,143.96l-9.38,3.44c-0.27,0.1-0.4,0.4-0.31,0.66c0.1,0.27,0.4,0.41,0.66,0.31
		l9.38-3.44c0.27-0.09,0.4-0.39,0.31-0.66C98.19,144,97.9,143.86,97.63,143.96 M89.22,139.84c-0.05,0.28,0.13,0.55,0.41,0.61
		l6.7,1.29c0.28,0.05,0.55-0.13,0.6-0.41c0.05-0.28-0.13-0.55-0.41-0.6l-6.7-1.3C89.55,139.38,89.28,139.56,89.22,139.84
		 M92.78,125.11c-0.13,0.25-0.03,0.56,0.23,0.7l7.15,3.66c0.25,0.13,0.56,0.03,0.7-0.22c0.13-0.25,0.03-0.56-0.23-0.7l-7.15-3.66
		C93.22,124.76,92.91,124.86,92.78,125.11 M96.3,117.57c-0.23,0.17-0.28,0.49-0.11,0.72l7.01,9.62c0.17,0.23,0.49,0.28,0.72,0.11
		c0.23-0.17,0.28-0.49,0.11-0.72l-7.01-9.62C96.85,117.45,96.53,117.4,96.3,117.57 M103.66,114.08c-0.28,0.06-0.46,0.33-0.4,0.61
		l1.75,8.45c0.06,0.28,0.33,0.46,0.61,0.4c0.28-0.06,0.46-0.33,0.4-0.61l-1.75-8.44C104.21,114.2,103.94,114.02,103.66,114.08
		 M116.58,156.24c-0.26,0.12-0.37,0.43-0.25,0.68l5.26,11.3c0.12,0.26,0.43,0.37,0.68,0.25c0.26-0.12,0.37-0.43,0.25-0.68
		l-5.26-11.3C117.14,156.23,116.84,156.12,116.58,156.24 M127.99,147.73c-0.23,0.18-0.26,0.5-0.09,0.73l5.34,6.7
		c0.18,0.22,0.5,0.26,0.73,0.08c0.22-0.18,0.26-0.5,0.08-0.73l-5.34-6.7C128.53,147.59,128.21,147.56,127.99,147.73 M127.97,144.26
		c-0.1,0.27,0.04,0.56,0.31,0.66l9.38,3.44c0.27,0.1,0.57-0.04,0.66-0.31c0.1-0.27-0.04-0.57-0.31-0.66l-9.38-3.44
		C128.37,143.86,128.07,143.99,127.97,144.26 M136.44,139.43l-6.7,1.3c-0.28,0.05-0.46,0.32-0.41,0.61
		c0.05,0.28,0.33,0.46,0.61,0.41l6.7-1.3c0.28-0.05,0.46-0.32,0.41-0.61C136.98,139.56,136.71,139.38,136.44,139.43 M132.78,124.89
		l-7.15,3.66c-0.25,0.13-0.36,0.44-0.23,0.69c0.13,0.25,0.45,0.36,0.7,0.23l7.15-3.66c0.25-0.13,0.35-0.44,0.22-0.7
		C133.35,124.86,133.04,124.76,132.78,124.89 M129.24,117.68l-7.01,9.62c-0.17,0.23-0.12,0.56,0.11,0.72
		c0.23,0.17,0.56,0.12,0.72-0.11l7.01-9.62c0.17-0.23,0.11-0.56-0.12-0.72C129.73,117.4,129.41,117.45,129.24,117.68 M122,114.48
		l-1.75,8.45c-0.06,0.28,0.12,0.55,0.4,0.61c0.28,0.06,0.55-0.12,0.61-0.4l1.75-8.44c0.06-0.28-0.12-0.55-0.4-0.61
		C122.32,114.02,122.05,114.2,122,114.48"/>
</g>
</svg>
